<svg version="1.1" id="Layer_1" xmlns="http://www.w3.org/2000/svg" xmlns:xlink="http://www.w3.org/1999/xlink" x="0px" y="0px"
	 width="100%" viewBox="0 0 529 471" enable-background="new 0 0 529 471" xml:space="preserve">
<path fill="#000000" opacity="1.000000" stroke="none" 
	d="
M1.000000,171.000000 
	C1.000000,114.395508 1.000000,57.791023 1.000000,1.000000 
	C77.020790,1.000000 153.041733,1.000000 229.549896,1.349226 
	C231.028397,10.688856 232.105804,19.671022 232.967010,28.673870 
	C233.294571,32.097881 235.454086,32.260773 237.902985,31.904896 
	C243.113251,31.147722 248.298538,30.218691 253.540649,29.352398 
	C253.615021,24.218132 252.356476,23.246382 246.419708,22.928047 
	C244.298203,22.814291 242.235687,21.599955 240.146255,20.887962 
	C241.965561,20.242611 243.949051,19.864586 245.557861,18.876507 
	C247.156677,17.894552 248.378769,16.299210 249.766068,14.972857 
	C248.135513,13.654301 246.681259,11.859910 244.817947,11.169626 
	C243.360245,10.629602 241.395416,11.458479 239.655930,11.679126 
	C239.390472,11.144019 239.125015,10.608912 238.859558,10.073805 
	C240.251724,9.373962 241.574631,8.400429 243.049438,8.027246 
	C246.968613,7.035546 251.843018,7.318773 251.000000,1.000000 
	C254.030594,1.000000 257.061188,1.000000 260.524292,1.412065 
	C258.877594,11.708257 259.390961,12.832150 268.090607,17.565739 
	C268.813599,17.959129 269.672394,18.305275 270.136261,18.922670 
	C270.748383,19.737410 271.032410,20.798683 271.457489,21.753971 
	C270.445221,22.049105 269.417450,22.624405 268.424561,22.569447 
	C267.142761,22.498499 265.886444,21.632542 264.623596,21.643009 
	C263.203064,21.654781 261.126190,21.799662 260.498260,22.698969 
	C258.859863,25.045534 258.265594,28.090347 262.292572,28.546648 
	C266.724182,29.048801 271.463257,29.528652 275.647247,28.423674 
	C277.836731,27.845430 280.468750,23.886103 280.538055,21.388205 
	C280.682648,16.177374 276.700897,12.992074 272.251434,10.657022 
	C270.684448,9.834683 269.246124,8.767198 267.749054,7.811645 
	C267.837769,7.112317 267.926483,6.412989 268.015228,5.713661 
	C273.244629,6.634889 280.560211,11.768120 280.000000,1.000000 
	C282.370575,1.000000 284.741119,1.000000 287.590363,1.365298 
	C288.219574,3.634302 288.370117,5.538010 288.527191,7.524447 
	C290.225128,7.888610 291.944855,8.257447 294.116608,8.723224 
	C293.077209,15.178428 292.042358,21.326916 291.116974,27.491838 
	C290.752930,29.917065 291.376160,31.981726 294.343689,31.912294 
	C296.574585,31.860098 299.399689,32.989986 299.691345,28.763927 
	C300.019623,24.007982 301.481598,19.330107 301.807281,14.574225 
	C302.031952,11.293900 302.773682,9.795392 306.355133,9.779148 
	C307.534485,9.773799 309.574371,7.723617 309.638916,6.523417 
	C309.706207,5.271789 307.975067,3.808221 306.819153,2.647496 
	C306.076660,1.901915 304.952881,1.536068 304.000000,1.000002 
	C379.268158,1.000000 454.536285,1.000000 530.000000,1.000000 
	C530.000000,94.020805 530.000000,187.041748 529.613281,280.539124 
	C528.284973,280.750183 527.305054,280.576904 526.408447,280.203644 
	C522.502075,278.577454 518.525452,279.910522 517.329468,283.688019 
	C516.136475,287.455780 517.372009,291.116882 521.144897,292.130585 
	C523.803406,292.844879 527.028076,291.452026 530.000000,291.000000 
	C530.000000,351.270599 530.000000,411.541168 530.000000,472.000000 
	C450.312531,472.000000 370.624939,472.000000 290.451202,471.571899 
	C289.955780,465.096191 288.788483,464.079224 282.341705,465.213043 
	C280.079498,465.610931 277.747589,466.496338 277.556244,463.280914 
	C277.515747,462.599792 280.475250,461.089508 282.056946,461.083282 
	C287.008209,461.063843 287.551392,458.563141 286.380035,453.976440 
	C284.259613,453.976440 282.085632,454.244476 280.030243,453.866974 
	C278.951111,453.668762 278.079620,452.340118 277.114319,451.521912 
	C278.068542,450.980682 278.964813,450.215057 279.990417,449.950287 
	C281.573547,449.541565 283.273621,449.176117 284.873169,449.328217 
	C287.969910,449.622681 289.186890,448.424011 288.990112,445.384216 
	C288.770203,441.987122 286.458313,441.940155 283.993988,442.113068 
	C280.195587,442.379608 276.383148,442.564178 272.614410,443.066650 
	C271.389038,443.230011 269.441589,444.109985 269.271606,444.953644 
	C268.663635,447.972198 268.369476,451.130798 268.520050,454.208862 
	C268.810577,460.149170 269.484833,466.070679 270.000000,472.000000 
	C266.307098,472.000000 262.614166,472.000000 258.444824,471.623718 
	C257.538483,470.390381 256.968445,469.574310 256.703491,468.668976 
	C255.658203,465.097107 252.429306,461.757019 257.747223,458.122467 
	C259.657806,456.816742 260.123199,451.575256 259.311768,448.670990 
	C258.634705,446.247589 255.374023,444.153656 252.795120,442.785309 
	C250.928833,441.795013 248.305618,442.227692 246.019287,442.033600 
	C243.570999,441.825775 240.433182,440.635437 238.876221,441.716827 
	C237.455780,442.703308 237.575897,446.137451 237.317398,448.525330 
	C236.471176,456.342224 235.761902,464.173981 235.000000,472.000000 
	C157.082291,472.000000 79.164589,472.000000 1.000000,472.000000 
	C1.000000,411.979340 1.000000,351.958313 1.454097,291.473419 
	C6.617316,291.000671 11.326437,290.991821 16.501829,290.990265 
	C25.300035,290.992737 33.631969,290.987915 42.296097,290.906555 
	C52.004940,290.707733 61.382782,290.632996 70.756653,290.399292 
	C71.849648,290.372040 72.920746,289.466156 74.337723,288.712189 
	C74.790352,282.670776 75.030922,276.883606 74.973358,271.099396 
	C74.943367,268.085846 74.387787,265.077515 73.597382,262.056274 
	C67.693871,262.011200 62.262577,261.976746 56.884571,261.479950 
	C56.930878,240.690491 56.923897,220.363388 57.389183,200.016418 
	C63.242710,199.640305 68.623970,199.284058 74.326202,198.662445 
	C74.770477,191.609589 74.988205,184.821793 74.965302,178.034805 
	C74.957405,175.693726 74.350235,173.354660 73.547699,171.011444 
	C68.916794,171.021622 64.727394,171.307312 60.609333,170.889633 
	C59.300446,170.756882 57.250702,168.833298 57.141693,167.588882 
	C56.736553,162.964081 56.843174,158.273865 57.052776,153.621490 
	C57.269348,148.814423 60.735817,144.261734 64.247612,144.046631 
	C69.283501,143.738159 71.347466,147.567642 73.488205,151.143326 
	C73.813828,151.687225 73.876404,152.402527 74.002075,153.049911 
	C74.687538,156.581100 76.617546,156.523026 78.964844,154.667191 
	C81.543022,152.628815 83.940193,150.360580 86.529121,148.336914 
	C91.568726,144.397690 96.827698,140.721283 101.649933,136.537369 
	C102.574532,135.735153 102.691841,132.482056 101.847656,131.414581 
	C97.231552,125.577660 90.831848,121.994942 83.807625,120.148674 
	C77.515167,118.494743 70.943085,117.534554 64.441101,117.134918 
	C54.763935,116.540115 45.035484,118.356415 36.800671,123.099632 
	C27.261589,128.594101 21.288576,137.858444 19.051830,148.765625 
	C17.903160,154.366943 18.004036,160.295334 18.129814,166.063065 
	C18.218306,170.120819 16.809181,171.381653 12.937947,171.060562 
	C9.632260,170.786392 6.283926,171.026443 2.620163,171.051300 
	C1.857246,171.042389 1.428623,171.021194 1.000000,171.000000 
M413.171173,248.643997 
	C413.130890,261.514801 413.073822,274.385620 413.088898,287.256348 
	C413.089905,288.096527 413.644165,288.936035 414.432831,290.357574 
	C422.319244,290.566589 430.209229,290.972565 438.089325,290.830902 
	C439.821228,290.799744 441.518158,288.822754 443.876221,287.334808 
	C452.951904,293.063019 464.278229,293.985962 475.497986,292.734375 
	C483.745789,291.814240 492.437958,289.973206 499.689514,286.171997 
	C510.673553,280.414276 516.682861,270.065277 517.821594,257.517303 
	C519.135254,243.042389 514.673523,229.619263 500.518738,222.599945 
	C492.231110,218.490158 482.809021,216.539154 473.761414,214.126526 
	C464.412048,211.633423 454.873047,209.857529 445.484222,207.500076 
	C444.121857,207.158005 442.114868,205.254410 442.186707,204.194016 
	C442.333557,202.027054 443.097443,199.193390 444.656311,197.956665 
	C450.535767,193.292053 457.769592,194.570984 464.365265,195.313797 
	C470.954346,196.055908 477.640320,197.869781 481.329468,204.733826 
	C481.983368,205.950439 484.251953,206.874756 485.810425,206.929855 
	C492.466705,207.165192 499.137817,206.939606 505.800323,207.059509 
	C508.681335,207.111359 510.054474,206.279510 510.004883,203.115433 
	C509.861298,193.953613 509.862427,184.787018 509.988342,175.624771 
	C510.036499,172.119827 508.539856,170.901855 505.183350,170.970184 
	C498.854492,171.098999 492.512421,170.821503 486.195282,171.121582 
	C484.482513,171.202957 482.839325,172.748108 481.164185,173.621414 
	C480.219177,174.237091 478.867218,174.140869 477.623535,173.722672 
	C462.768921,168.727783 447.662567,168.158112 432.909607,173.178162 
	C422.486053,176.725037 413.742950,183.229919 410.646667,194.738770 
	C407.510559,206.395752 408.292206,217.485504 417.190399,226.687149 
	C425.108978,234.875748 435.469269,238.380478 446.182373,240.937546 
	C456.758575,243.461975 467.518860,245.312622 477.929230,248.374115 
	C480.978577,249.270874 484.652344,252.963211 485.290802,255.959930 
	C486.195831,260.208221 482.480469,263.880829 478.320251,264.936798 
	C465.492004,268.193115 448.887512,268.569672 441.857513,250.897308 
	C442.335266,248.187103 440.702698,248.025909 438.637177,248.049377 
	C430.376617,248.143265 422.114960,248.142319 413.171173,248.643997 
M436.737061,345.938202 
	C440.703949,346.382446 442.096008,344.324463 441.985413,340.659790 
	C441.903076,337.930939 441.969177,335.197632 441.969177,332.014832 
	C447.739502,333.703552 451.961121,331.458649 453.574341,327.492523 
	C454.921722,324.179871 454.405701,319.559082 453.315643,315.938904 
	C451.818512,310.966949 447.103302,310.631836 442.589966,311.071747 
	C440.636871,311.262115 438.703979,311.659668 436.460938,311.259521 
	C435.979492,312.378418 435.093872,313.492401 435.080261,314.616943 
	C434.966309,324.061707 434.985748,333.508575 435.049103,342.954224 
	C435.055817,343.951904 435.603546,344.945923 436.737061,345.938202 
M100.081215,290.987305 
	C114.195541,290.991516 128.309998,291.024323 142.423996,290.957489 
	C143.904984,290.950470 145.383163,290.355164 147.812592,289.991669 
	C154.583542,290.178162 161.364883,290.198364 168.121094,290.620789 
	C171.533981,290.834137 172.012558,289.160645 171.988922,286.455719 
	C171.930756,279.797852 171.902771,273.137878 172.010040,266.481140 
	C172.061234,263.304749 170.772278,261.931519 167.566956,262.002533 
	C162.575729,262.113129 157.571167,261.838928 152.589249,262.079559 
	C149.124313,262.246857 147.673050,261.059479 147.989639,257.563110 
	C148.644760,250.328049 149.011215,243.062332 149.837540,235.848297 
	C151.038055,225.367340 156.141556,217.082275 165.118225,211.521652 
	C173.109131,206.571655 182.257782,207.043289 191.737488,206.202469 
	C191.798004,197.072220 191.927582,187.941589 191.878845,178.811920 
	C191.863342,175.906342 191.373627,173.003281 190.157745,170.026611 
	C188.328293,170.023697 186.496536,170.079803 184.669800,170.007919 
	C175.602493,169.651108 167.011276,171.576767 160.181183,177.594345 
	C154.523911,182.578598 149.810623,188.634277 144.982376,193.885437 
	C144.982376,188.360947 144.908844,181.911957 145.013824,175.465866 
	C145.065292,172.305832 143.807816,170.810806 140.590790,170.996765 
	C136.791733,171.216370 132.986740,171.525269 129.186508,171.497360 
	C117.061142,171.408340 104.936829,171.116364 92.811943,171.107040 
	C91.591866,171.106094 90.370712,172.492920 89.130867,174.131195 
	C89.352715,182.672577 89.574562,191.213943 90.753029,199.859573 
	C95.723969,199.895752 100.712440,199.710388 105.655258,200.101776 
	C107.156563,200.220657 108.531792,201.931808 109.380196,203.533478 
	C109.253563,213.688980 109.126938,223.844498 108.974503,234.861084 
	C109.297157,237.979065 109.834709,241.093170 109.890854,244.215942 
	C109.970184,248.628113 109.711754,253.047302 109.562752,257.462311 
	C109.469688,260.219910 108.781319,262.256226 105.256775,262.076294 
	C100.937027,261.855713 96.589813,262.183319 92.268669,261.976868 
	C88.995079,261.820435 87.968933,263.044373 87.940331,266.294464 
	C87.879097,273.252686 87.401176,280.207672 87.071510,287.162933 
	C86.942162,289.891907 87.989761,291.118866 90.913849,290.876404 
	C93.645828,290.649872 96.415558,290.878632 100.081215,290.987305 
M295.587067,277.904602 
	C309.718811,288.988647 325.694885,294.231537 343.679565,292.974426 
	C355.829254,292.125122 367.513306,289.186768 377.296295,281.806335 
	C401.869080,263.268280 403.804962,237.760773 399.331573,212.965225 
	C396.795471,198.907654 388.160797,188.357376 376.554504,179.884781 
	C368.528748,174.025970 359.625732,170.265137 350.214874,169.370804 
	C339.768646,168.378067 329.051697,167.922821 318.568451,171.235779 
	C300.752777,176.866013 287.554810,187.999451 280.448700,204.949875 
	C275.011078,217.920349 275.621857,232.236816 277.620453,245.973633 
	C279.422913,258.362488 285.495941,269.018799 295.587067,277.904602 
M265.003174,284.829468 
	C264.349609,264.985779 263.646637,245.143539 263.069611,225.297623 
	C262.871216,218.472794 263.075836,211.637039 262.937836,204.809464 
	C262.761322,196.076736 258.374512,190.487732 250.509201,187.716537 
	C248.984787,187.179443 247.868546,184.811584 247.055557,183.060074 
	C245.035706,178.708542 243.352524,174.201401 241.377502,169.827469 
	C241.150513,169.324768 239.946136,169.211014 239.169937,169.016708 
	C229.975586,166.715210 221.837814,170.120255 214.235611,174.462799 
	C211.509766,176.019882 208.631958,179.656662 208.285980,182.630692 
	C206.737839,195.939102 205.857895,209.339661 205.175674,222.729294 
	C204.726166,231.551804 205.259552,240.421280 204.925537,249.253555 
	C204.517853,260.034180 203.651047,270.797180 203.005295,281.569122 
	C202.657410,287.372437 205.764816,290.813629 211.619049,290.974579 
	C215.780640,291.089020 219.963440,291.233643 224.107346,290.944031 
	C227.595352,290.700226 228.740829,292.860229 228.781921,295.394165 
	C228.866501,300.613831 228.311508,305.840332 228.174789,311.068085 
	C228.035538,316.392639 227.552200,321.801270 228.329941,327.007233 
	C228.609726,328.879944 232.035522,331.370667 234.182785,331.535828 
	C235.936020,331.670715 239.395615,328.897797 239.550247,327.184113 
	C240.200684,319.976318 239.810272,312.680359 239.969315,305.420380 
	C240.070038,300.822906 238.838379,294.802826 241.230713,292.074951 
	C243.269073,289.750641 249.648956,290.868896 254.074707,291.101532 
	C258.902893,291.355255 262.512787,289.956268 265.003174,284.829468 
M408.528229,404.935730 
	C399.613312,396.806519 393.413635,397.734619 385.361908,404.198975 
	C379.552429,408.863098 379.484589,419.982941 384.763763,426.007690 
	C390.625946,432.697754 402.984283,431.242920 408.308136,427.149414 
	C414.435608,422.437988 414.472168,412.432220 408.528229,404.935730 
M214.426956,5.929274 
	C209.682373,6.701819 204.888153,7.273839 200.237198,8.424752 
	C199.360779,8.641627 198.333252,11.317480 198.604553,12.598321 
	C200.209625,20.176292 202.113525,27.694347 204.096802,35.184921 
	C204.371475,36.222317 205.903076,37.899250 206.410172,37.752335 
	C211.473648,36.285385 217.271515,35.573139 221.230637,32.527248 
	C226.126312,28.760798 224.888626,24.755596 218.739059,17.902361 
	C221.731400,12.383618 221.411270,11.337241 214.426956,5.929274 
M86.305733,341.280090 
	C78.993034,346.151001 71.580193,350.883820 64.472359,356.037323 
	C63.368706,356.837494 63.659306,359.560699 63.305153,361.394653 
	C65.286209,361.687408 67.530235,362.709229 69.189804,362.110657 
	C72.038734,361.083069 74.522751,359.043823 78.192284,356.797333 
	C76.950661,365.109589 75.875206,372.309357 74.572052,381.033508 
	C83.170784,375.530792 90.390648,371.026337 97.470688,366.311859 
	C99.716248,364.816620 102.459473,363.158356 99.409019,359.723145 
	C96.547928,356.501190 94.135101,357.272430 91.473244,359.873749 
	C90.197060,361.120880 88.644470,362.085236 87.217056,363.177643 
	C86.731796,362.901978 86.246529,362.626312 85.761269,362.350647 
	C86.221275,359.523804 86.949944,356.709015 87.077255,353.867279 
	C87.260300,349.781311 87.005600,345.675720 86.305733,341.280090 
M396.356201,68.907173 
	C393.821991,71.411560 393.191101,73.721458 396.448944,76.330368 
	C399.900299,79.094261 400.897278,76.364449 402.511261,74.200233 
	C404.073822,72.104973 405.969910,70.258446 408.404846,67.536552 
	C409.179169,69.960609 409.847565,71.259819 409.979950,72.611511 
	C410.431183,77.219398 410.615875,81.853638 411.082672,86.459541 
	C411.199799,87.614876 411.991211,88.701866 412.472717,89.820267 
	C413.591553,89.263153 415.014313,88.973778 415.779510,88.105148 
	C420.471924,82.778488 425.129639,77.412315 429.573120,71.878044 
	C433.224091,67.330856 432.925415,66.598587 427.040405,63.327274 
	C424.375916,66.294678 421.618988,69.365028 417.903748,73.502647 
	C416.981110,64.773216 416.213989,57.515305 415.446869,50.257389 
	C414.842072,50.145363 414.237274,50.033340 413.632477,49.921314 
	C408.025421,56.062103 402.418365,62.202892 396.356201,68.907173 
M145.860367,38.652729 
	C142.657639,33.270580 142.657639,33.270580 135.755630,37.319130 
	C137.589783,40.356903 139.415222,43.380249 141.376358,46.628326 
	C138.740372,48.350494 135.656601,51.886192 133.482361,51.395096 
	C130.851089,50.800774 128.989365,46.799473 126.804604,44.263638 
	C120.105637,47.037064 119.632431,48.229855 123.354813,53.735138 
	C127.405403,59.725819 131.502808,65.687668 135.744461,71.542793 
	C136.272690,72.271942 138.114151,72.860588 138.816971,72.495049 
	C140.666214,71.533226 142.223160,70.009445 143.911407,68.697952 
	C142.749466,66.919250 141.760574,65.415436 140.782135,63.904858 
	C139.766739,62.337227 138.761429,60.763046 137.644913,59.025505 
	C140.757050,57.129272 143.270187,55.598011 145.781189,54.068050 
	C147.145065,55.556347 148.333267,56.691372 149.333954,57.972836 
	C153.734833,63.608559 154.495850,63.625061 159.070923,57.648804 
	C154.839218,51.597088 150.532944,45.438751 145.860367,38.652729 
M366.884796,21.554256 
	C365.267609,20.749247 363.650421,19.944239 361.343781,18.796021 
	C356.725098,27.920557 352.241913,36.777409 347.794647,45.563313 
	C353.983978,49.810112 354.280762,49.976898 357.871674,43.587132 
	C360.221252,39.406197 362.583679,40.075283 365.884583,41.925751 
	C369.381775,43.886253 368.948425,45.978268 366.916473,48.754169 
	C365.696289,50.421017 365.015747,52.482883 364.106506,54.338936 
	C371.445374,58.676949 370.712952,59.866722 374.314331,52.543770 
	C376.937195,47.210503 379.680054,41.936237 382.305328,36.604126 
	C385.256287,30.610582 385.224976,30.595165 378.786774,27.438673 
	C376.730591,30.507818 374.642944,33.623932 372.399506,36.972610 
	C369.481659,35.322868 366.693207,33.746277 364.280701,32.382244 
	C365.446991,28.511457 366.417786,25.289465 366.884796,21.554256 
M350.909119,457.881287 
	C351.187561,457.004333 351.864410,456.027252 351.673706,455.268158 
	C350.946747,452.374298 349.940033,449.550659 349.037842,446.700806 
	C352.647827,448.090088 355.435364,449.950531 358.003510,452.076111 
	C360.596436,454.222321 363.069366,453.643311 365.055756,451.661987 
	C367.507812,449.216278 364.739166,448.133636 363.293549,446.698547 
	C361.668518,445.085419 360.232849,443.281525 358.443085,441.252594 
	C358.671936,440.736847 359.251923,439.723511 359.583984,438.634552 
	C361.934448,430.926178 356.462036,424.345581 348.546692,425.792877 
	C344.748199,426.487427 341.172729,428.362427 337.467621,429.618317 
	C334.020416,430.786804 333.979645,432.822510 335.290527,435.825623 
	C337.762573,441.488739 339.709534,447.383636 342.243866,453.016083 
	C343.681793,456.211823 344.655792,460.990936 350.909119,457.881287 
M428.495911,86.970047 
	C420.576080,95.941895 422.344513,107.456017 432.545776,113.338432 
	C435.935577,115.293114 446.137939,110.336861 446.583435,106.420731 
	C446.681274,105.560577 446.286407,104.363670 445.681885,103.756378 
	C443.783051,101.848854 441.676147,100.148430 439.055634,97.845695 
	C437.640930,100.030571 436.327057,102.059708 434.202148,105.341461 
	C433.427185,102.151192 432.300293,99.783829 432.412384,97.476685 
	C432.614075,93.325523 435.764587,91.503792 439.511230,91.106270 
	C443.974609,90.632698 446.460419,93.898567 447.454956,97.337234 
	C448.491760,100.922028 450.746094,101.907692 453.116333,100.592575 
	C454.380951,99.890923 454.897339,96.288475 454.442017,94.294250 
	C451.747528,82.493774 436.458923,78.436478 428.495911,86.970047 
M280.578705,331.758911 
	C276.992401,331.295837 273.406067,330.832733 269.819763,330.369659 
	C271.383820,329.136536 272.840118,329.021881 274.298492,328.981995 
	C279.538147,328.838501 282.720947,326.120850 283.395111,321.016327 
	C283.805878,317.905975 284.031891,314.771240 284.389832,311.152466 
	C280.787476,311.152466 276.943634,310.724457 273.240082,311.262360 
	C268.754913,311.913818 265.837555,314.385590 265.925995,319.637726 
	C265.971252,322.326355 264.806519,325.019592 264.357208,327.738617 
	C264.117767,329.187561 264.126129,330.703094 264.221405,332.175690 
	C264.362091,334.349915 265.243561,336.636108 264.801514,338.653809 
	C263.956787,342.510193 266.214752,344.821442 268.876404,345.514252 
	C272.306458,346.407074 276.552917,346.793610 279.658356,345.501251 
	C282.316559,344.394989 284.698456,340.873383 285.607452,337.927826 
	C286.218842,335.946655 285.478607,332.053009 280.578705,331.758911 
M179.818665,40.266258 
	C179.059128,40.604588 178.325836,41.138378 177.535126,41.244621 
	C175.154251,41.564537 170.818069,42.330242 170.662613,41.839436 
	C169.430389,37.949039 173.651291,39.176403 175.139938,37.679771 
	C176.288269,36.525299 177.784424,34.241009 177.340393,33.318150 
	C176.643173,31.869020 174.543350,30.868473 172.831253,30.238008 
	C172.077850,29.960575 170.859009,31.268663 169.777466,31.482382 
	C168.303665,31.773623 166.759064,31.706749 165.244827,31.793427 
	C166.318161,30.444975 167.155930,28.741783 168.522217,27.834518 
	C170.385971,26.596924 172.652481,25.965889 174.632355,25.123299 
	C173.273422,17.319286 173.281982,17.336170 166.911911,20.565502 
	C165.735641,21.161816 164.421585,21.483768 163.235947,22.064659 
	C160.240540,23.532217 157.282059,25.075130 154.369583,26.556915 
	C158.325302,35.251095 162.100632,43.189869 165.536423,51.272964 
	C166.954910,54.610134 169.288956,53.677006 171.271576,52.870071 
	C174.799545,51.434174 178.207123,49.632061 181.480682,47.674747 
	C182.868729,46.844814 183.790955,45.235825 184.924896,43.980919 
	C183.477097,42.693142 182.029282,41.405365 179.818665,40.266258 
M161.758957,449.203491 
	C166.181000,451.406342 170.603043,453.609192 175.602966,456.099945 
	C176.452194,453.973969 178.186508,451.170532 177.671082,450.666229 
	C174.879623,447.934723 171.531723,445.771881 167.972672,443.112030 
	C171.992615,438.287903 175.550003,444.728241 179.452087,443.660431 
	C180.179077,442.055725 180.968597,440.312988 181.937073,438.175262 
	C179.387024,436.812469 176.996475,435.699493 174.808594,434.275208 
	C174.055847,433.785187 173.808975,432.518127 173.331009,431.606049 
	C174.444550,431.331238 175.754333,430.540680 176.635666,430.876068 
	C179.536758,431.980133 182.282654,433.492096 185.600525,435.094849 
	C186.546219,432.353577 187.320267,430.109863 188.109009,427.823578 
	C183.551392,425.808167 179.378815,424.210327 175.443665,422.157349 
	C170.998093,419.838135 168.860825,421.412140 167.194550,425.703766 
	C164.648010,432.262634 161.829819,438.731445 158.787994,445.076019 
	C157.265686,448.251190 159.171982,448.382538 161.758957,449.203491 
M202.840271,455.348419 
	C202.431107,455.872192 202.074890,456.450195 201.603531,456.910248 
	C199.654465,458.812744 196.187683,460.664581 198.719818,463.698883 
	C200.946503,466.367096 203.975143,465.079346 206.654190,462.981110 
	C208.969269,461.167999 216.862198,463.487152 217.878601,466.384338 
	C219.249557,470.292114 221.895706,470.228027 225.779968,469.651855 
	C223.399139,458.751099 222.969757,447.545319 218.971786,437.139496 
	C218.338409,437.032837 217.705032,436.926178 217.071640,436.819550 
	C212.440292,442.779541 207.808929,448.739532 202.840271,455.348419 
M409.448303,384.086548 
	C406.246643,387.836761 406.748749,392.189117 409.331940,395.434235 
	C411.967743,398.745392 416.054169,400.177734 420.564209,397.805847 
	C422.542419,396.765533 424.833984,396.320984 426.950165,395.616913 
	C428.762390,399.369080 428.845642,399.557526 423.388062,401.968811 
	C419.878448,403.519348 420.676117,405.987305 421.938416,408.030945 
	C422.503601,408.945892 424.886475,408.905792 426.457428,408.967224 
	C427.360046,409.002472 428.303955,408.410339 429.203033,408.037323 
	C435.426086,405.455627 438.351837,397.731537 435.362762,392.586121 
	C432.219025,387.174438 427.742218,387.717072 422.754120,388.945770 
	C420.363831,389.534637 417.815063,389.480103 415.338074,389.716949 
	C415.149536,389.189636 414.960999,388.662354 414.772461,388.135040 
	C417.892181,385.466492 426.304474,385.957397 420.446075,377.314056 
	C417.041992,379.342743 413.507446,381.449158 409.448303,384.086548 
M442.305176,130.975662 
	C446.936737,137.525742 456.305511,138.276352 459.237000,131.962921 
	C460.561310,129.110855 459.757477,125.317734 460.202148,121.989365 
	C460.411224,120.424263 461.289093,118.948532 461.863953,117.432320 
	C462.913330,118.716278 464.011078,119.965416 464.977936,121.308762 
	C465.218414,121.642914 465.071289,122.283730 465.041687,122.779968 
	C464.876007,125.557701 466.428314,126.473831 468.787445,125.778252 
	C470.901703,125.154877 473.682495,124.672882 472.038391,121.124481 
	C471.430267,119.812065 471.538330,118.167068 470.927032,116.857002 
	C469.068970,112.875023 466.508301,109.672630 461.703857,108.993042 
	C456.941650,108.319420 454.403015,111.013977 453.201447,114.910057 
	C452.299194,117.835480 452.487518,121.082092 451.967773,124.147980 
	C451.755585,125.399910 450.956024,126.552261 450.423676,127.749908 
	C449.698914,126.673515 448.587097,125.686615 448.314026,124.505775 
	C446.862427,118.228462 445.232788,117.587479 440.277100,121.712372 
	C440.789429,124.543198 441.313232,127.437576 442.305176,130.975662 
M318.207611,467.381226 
	C320.200684,466.350006 324.802338,468.366608 323.092987,463.030334 
	C321.010284,456.528778 321.140259,456.651184 327.569824,454.122803 
	C328.857208,453.616516 330.455597,451.400848 330.286865,450.201843 
	C329.911194,447.531921 328.512512,445.161865 324.849426,446.004486 
	C322.728210,446.492432 320.272766,449.547028 318.607910,446.045441 
	C318.349945,445.502869 322.079376,443.032379 324.009430,441.510010 
	C324.372131,441.223938 324.951599,441.070343 325.422760,441.087128 
	C328.729553,441.204712 329.887054,438.946594 328.747284,436.654755 
	C328.054077,435.260956 325.013458,433.977234 323.365631,434.311584 
	C318.198120,435.360016 313.191010,437.199066 308.049011,438.753876 
	C309.043457,441.736359 310.130005,444.457153 310.851440,447.271515 
	C312.324005,453.015839 313.507324,458.835297 315.034515,464.563873 
	C315.343353,465.722382 316.646545,466.615814 318.207611,467.381226 
M150.312973,431.354187 
	C154.115051,433.515594 154.068314,429.442444 155.382538,427.921478 
	C155.680313,427.576874 154.222015,425.408295 153.259537,424.368622 
	C152.317947,423.351532 150.806915,422.859589 149.873215,421.837952 
	C149.272522,421.180664 149.263046,419.983002 148.988586,419.027557 
	C150.086136,418.744904 151.231613,418.125458 152.267944,418.272980 
	C153.334518,418.424774 154.331924,419.268066 155.295303,419.905884 
	C161.152115,423.783356 161.145981,423.792633 164.772263,417.210114 
	C160.366653,414.169128 156.077209,410.830231 151.386642,408.209167 
	C150.041367,407.457428 146.534851,408.091156 145.727203,409.264862 
	C140.720566,416.540619 136.200790,424.151337 131.190765,432.177307 
	C133.594971,433.506958 135.812698,434.733490 137.837769,435.853485 
	C140.197296,432.872162 142.181824,430.364624 144.315475,427.668671 
	C146.406998,428.853607 148.116058,429.821838 150.312973,431.354187 
M480.994080,344.148163 
	C483.078033,344.913391 485.161987,345.678650 487.982941,346.714508 
	C487.982941,341.900879 487.747711,338.580231 488.107544,335.325348 
	C488.237671,334.148285 489.803101,332.183411 490.696838,332.192688 
	C496.024139,332.247986 498.570129,329.704926 500.373199,324.789307 
	C502.795105,318.186646 499.311157,311.508148 492.255676,311.083038 
	C490.150513,310.956177 487.899536,311.963684 485.906921,311.543335 
	C482.636566,310.853516 482.133240,312.450928 482.042358,314.950867 
	C481.699921,324.372650 481.348297,333.794128 480.994080,344.148163 
M359.517883,316.127808 
	C363.415100,317.437408 364.032562,320.574493 363.991333,324.103363 
	C363.961823,326.629547 363.985596,329.156311 363.985596,331.682831 
	C364.708984,331.920471 365.432404,332.158142 366.155792,332.395813 
	C367.102325,330.774536 368.443878,329.253632 368.888153,327.504761 
	C369.365326,325.626373 369.106384,323.527008 368.977112,321.536499 
	C368.780548,318.510864 370.192047,316.165588 373.026642,316.595123 
	C374.558075,316.827179 376.299408,319.513397 376.847778,321.409973 
	C377.515442,323.719147 376.794098,326.395905 377.145874,328.845825 
	C377.303833,329.946167 378.608551,330.881897 379.392914,331.892334 
	C380.249329,330.816193 381.722900,329.805328 381.844971,328.651520 
	C382.193634,325.355560 382.142395,321.993866 381.972687,318.672119 
	C381.731262,313.947632 377.967407,310.930603 373.287598,311.020477 
	C365.674225,311.166656 358.056000,311.059875 350.279816,311.059875 
	C350.279816,316.958496 350.148651,322.386719 350.376221,327.799866 
	C350.430054,329.080780 351.689056,330.311035 352.393677,331.564575 
	C353.578705,330.526215 355.426544,329.680054 355.796143,328.405304 
	C356.375488,326.406982 356.455597,323.965576 355.846954,321.989044 
	C354.861359,318.788452 356.303101,317.372101 359.517883,316.127808 
M337.596741,36.985489 
	C338.902222,32.701466 339.973969,28.323080 341.643951,24.186192 
	C342.204773,22.796917 344.336304,21.071814 345.667480,21.138788 
	C350.322205,21.372980 351.362122,18.903633 351.347534,14.819235 
	C344.822876,12.580756 338.272430,10.333426 332.013000,8.185933 
	C328.724396,12.127510 327.218262,15.068798 333.096344,16.712252 
	C333.813660,16.912815 334.721497,18.921213 334.456818,19.742357 
	C332.692291,25.217155 330.802948,30.667402 328.600891,35.979176 
	C327.423553,38.819237 328.454803,40.144806 330.921204,40.774185 
	C333.773621,41.502075 336.223572,40.961002 337.596741,36.985489 
M120.478943,73.993347 
	C117.938179,71.077087 115.397423,68.160828 112.955788,65.358353 
	C113.597183,64.362770 113.782715,63.854717 114.141663,63.552917 
	C116.702034,61.400215 116.278755,58.695637 114.089088,57.261501 
	C112.892723,56.477928 109.898819,57.365334 108.346870,58.424358 
	C105.231346,60.550339 102.154961,63.000439 99.843880,65.932686 
	C98.575119,67.542465 98.897530,70.406342 98.502495,72.704750 
	C100.379906,72.631264 102.261818,72.444328 104.133385,72.518433 
	C105.774696,72.583427 107.951775,72.356728 108.936867,73.279129 
	C111.919945,76.072388 114.444008,79.356827 117.137932,82.457687 
	C121.327820,87.280518 122.759689,87.284218 127.656677,82.114044 
	C125.461548,79.603569 123.229279,77.050613 120.478943,73.993347 
M103.138412,409.398193 
	C109.179771,413.607849 109.179771,413.607849 113.631104,407.293243 
	C111.062263,405.592987 108.272438,403.746460 104.925194,401.531006 
	C109.563362,396.838501 113.286057,393.181152 116.869720,389.392365 
	C118.282906,387.898224 120.675064,385.764099 120.344215,384.533752 
	C119.771416,382.403717 117.423401,380.751038 115.641533,378.691925 
	C108.190468,386.685760 101.528435,393.833069 94.934280,400.907593 
	C96.874832,402.972717 97.995926,404.180481 99.133629,405.372375 
	C100.273651,406.566742 101.430283,407.745209 103.138412,409.398193 
M402.767242,313.651978 
	C396.807556,310.137421 392.734558,310.279358 389.120697,313.405762 
	C384.610016,317.308105 385.267822,324.661285 388.122162,329.232208 
	C390.052643,332.323700 395.511230,333.212952 400.633850,330.975372 
	C401.887543,330.427765 403.534332,328.368011 403.321838,327.355957 
	C402.810089,324.918762 400.960327,324.747314 398.731781,326.076477 
	C395.803070,327.823303 393.564362,327.120789 392.063751,322.935791 
	C395.664520,322.935791 398.607330,322.936310 401.550171,322.935638 
	C405.198578,322.934814 406.508148,321.371216 404.890076,317.893982 
	C404.329559,316.689484 403.708862,315.513031 402.767242,313.651978 
M305.233765,327.555969 
	C305.791962,326.178680 306.577759,324.847382 306.867126,323.415741 
	C307.869873,318.454742 305.244202,313.946777 299.917480,311.519287 
	C295.664795,309.581268 292.175385,311.249207 289.257904,314.357208 
	C285.613342,318.239807 285.134216,322.783508 287.732147,326.871826 
	C291.779297,333.240753 298.362091,333.773529 305.233765,327.555969 
M458.033813,320.759308 
	C458.074188,327.820038 459.372681,330.022217 465.006256,331.468384 
	C469.184021,332.540802 473.121826,331.794617 475.838104,328.101685 
	C478.643250,324.287933 478.992706,319.949036 476.564789,315.967773 
	C474.426300,312.461273 471.234741,310.253479 466.588226,311.063324 
	C461.456421,311.957733 458.721069,314.872070 458.033813,320.759308 
M392.594177,57.995228 
	C395.838776,52.971970 399.083405,47.948708 402.209290,43.109215 
	C396.722473,37.886421 396.649841,37.834728 393.019592,42.935566 
	C389.705231,47.592583 386.929016,52.678135 383.273041,57.035660 
	C377.969147,63.357227 377.842407,63.856499 385.351166,67.589973 
	C387.563904,64.582550 389.807068,61.533752 392.594177,57.995228 
M315.805023,331.419769 
	C320.055847,331.419769 324.306641,331.419769 329.005981,331.419769 
	C329.005981,325.992188 329.106873,320.360779 328.904205,314.740295 
	C328.871368,313.828979 327.491943,312.966187 326.734955,312.080963 
	C325.837006,312.986542 324.408203,313.760620 324.145020,314.823364 
	C323.474243,317.531952 323.585876,320.440552 322.856903,323.125885 
	C322.481934,324.507172 320.829102,326.669617 320.020721,326.557281 
	C318.584106,326.357666 316.844666,324.945312 316.170166,323.577606 
	C315.451385,322.119965 315.763336,320.127106 315.730560,318.365936 
	C315.699860,316.714569 316.081482,315.001617 315.743958,313.431335 
	C315.559113,312.571350 314.361725,311.638397 313.428497,311.339783 
	C312.875641,311.162872 311.341797,312.092804 311.283569,312.635864 
	C310.772583,317.403900 310.080139,322.223938 310.389893,326.966614 
	C310.487946,328.468140 313.446533,329.782776 315.805023,331.419769 
M380.055176,434.460938 
	C377.292114,429.719543 374.515045,424.986206 371.769592,420.234619 
	C368.602661,414.753479 368.182312,414.687469 363.031830,419.306213 
	C364.993988,423.589966 366.802399,428.075256 369.061615,432.320587 
	C371.357880,436.635437 374.098511,440.713745 376.580322,444.790161 
	C383.719147,442.930573 384.358063,441.051727 380.055176,434.460938 
M130.676773,412.270111 
	C133.844238,408.585114 137.011688,404.900085 140.487259,400.856598 
	C137.881668,398.863861 135.861832,397.319122 133.861343,395.789185 
	C127.411667,404.080017 121.280045,411.962036 114.897163,420.167023 
	C117.091309,421.600159 118.952904,422.816071 121.238373,424.308807 
	C124.411293,420.255981 127.320709,416.539703 130.676773,412.270111 
M54.188095,338.657013 
	C54.280117,340.637024 54.212772,342.649139 54.599655,344.569733 
	C54.676315,344.950287 56.703094,345.444550 57.481544,345.099335 
	C65.839485,341.392914 74.127304,337.528412 82.685936,333.591431 
	C81.940964,332.255127 81.225960,331.568756 81.229980,330.886597 
	C81.265938,324.783600 78.286697,325.994293 74.655960,327.949951 
	C68.095177,331.483917 61.442589,334.847504 54.188095,338.657013 
M410.363068,329.663849 
	C413.295044,330.264984 416.208954,331.078094 419.170654,331.330841 
	C419.999146,331.401550 420.968597,329.820160 421.873383,328.996643 
	C420.954498,328.025970 420.085388,326.284607 419.107880,326.221497 
	C415.399963,325.982056 416.088257,323.444672 415.977203,321.208038 
	C415.860962,318.866516 416.037476,316.959259 419.204010,316.832825 
	C421.419037,316.744415 423.057312,315.058746 420.983215,313.315033 
	C418.403717,311.146454 415.824951,309.175659 414.111908,306.180969 
	C413.759216,305.564362 412.404144,305.521149 411.666656,305.267212 
	C410.154480,307.855225 408.699524,310.120880 407.505737,312.516663 
	C407.116943,313.296997 406.989319,314.900299 407.456238,315.306519 
	C411.925232,319.194397 409.292999,324.337189 410.363068,329.663849 
M505.947906,326.333374 
	C505.207825,327.508575 504.467743,328.683777 503.801270,329.742065 
	C508.710571,333.617188 514.022888,333.664124 517.174561,329.710266 
	C523.432373,321.859650 512.857971,321.024231 509.337036,315.917389 
	C511.942291,316.264740 513.205505,316.651123 514.411011,316.517578 
	C515.220276,316.427948 516.496887,315.682068 516.584106,315.086273 
	C516.716797,314.180023 516.290100,312.774567 515.594116,312.235321 
	C512.295044,309.679413 507.048492,309.998260 505.249573,312.652161 
	C503.140320,315.763885 504.289307,320.382263 507.804321,322.922363 
	C509.136292,323.884857 510.467712,324.848114 511.799347,325.811005 
	C511.651489,326.115265 511.503632,326.419495 511.355774,326.723755 
	C509.795929,326.529022 508.236115,326.334320 505.947906,326.333374 
M347.777313,314.093384 
	C347.684235,309.909515 344.553772,311.149292 342.311401,311.188751 
	C339.827362,311.232483 337.350159,311.667999 334.639587,311.957489 
	C334.639587,316.346405 334.736969,321.395142 334.591278,326.436829 
	C334.533722,328.428284 332.696198,331.164093 336.249695,331.449066 
	C339.911682,331.742737 340.319092,328.947815 340.015411,326.018402 
	C339.930054,325.195221 340.045441,324.353119 339.995270,323.524109 
	C339.733582,319.202271 340.317200,315.688049 346.079285,316.520599 
	C346.473969,316.577667 347.046997,315.400391 347.777313,314.093384 
z"/>
<path fill="#231F20" opacity="1.000000" stroke="none" 
	d="
M16.035557,290.982971 
	C11.326437,290.991821 6.617316,291.000671 1.454097,291.004761 
	C1.000000,281.645782 1.000000,272.291534 1.461401,262.479675 
	C6.695692,261.721924 11.468581,261.421783 16.460991,261.388611 
	C17.072805,260.257721 17.799810,258.861511 17.806463,257.461853 
	C17.887590,240.397751 17.879158,223.333084 17.839165,206.268692 
	C17.835377,204.653198 17.461304,203.038574 16.977524,201.080780 
	C11.463940,200.158676 6.231970,199.579330 1.000000,199.000000 
	C1.000000,198.555557 1.000000,198.111099 1.385840,197.180481 
	C2.213102,195.597626 3.026005,194.504288 3.035992,193.403671 
	C3.103632,185.949661 3.001619,178.494095 2.954456,171.039032 
	C6.283926,171.026443 9.632260,170.786392 12.937947,171.060562 
	C16.809181,171.381653 18.218306,170.120819 18.129814,166.063065 
	C18.004036,160.295334 17.903160,154.366943 19.051830,148.765625 
	C21.288576,137.858444 27.261589,128.594101 36.800671,123.099632 
	C45.035484,118.356415 54.763935,116.540115 64.441101,117.134918 
	C70.943085,117.534554 77.515167,118.494743 83.807625,120.148674 
	C90.831848,121.994942 97.231552,125.577660 101.847656,131.414581 
	C102.691841,132.482056 102.574532,135.735153 101.649933,136.537369 
	C96.827698,140.721283 91.568726,144.397690 86.529121,148.336914 
	C83.940193,150.360580 81.543022,152.628815 78.964844,154.667191 
	C76.617546,156.523026 74.687538,156.581100 74.002075,153.049911 
	C73.876404,152.402527 73.813828,151.687225 73.488205,151.143326 
	C71.347466,147.567642 69.283501,143.738159 64.247612,144.046631 
	C60.735817,144.261734 57.269348,148.814423 57.052776,153.621490 
	C56.843174,158.273865 56.736553,162.964081 57.141693,167.588882 
	C57.250702,168.833298 59.300446,170.756882 60.609333,170.889633 
	C64.727394,171.307312 68.916794,171.021622 73.526535,171.478516 
	C73.984734,180.941818 73.994980,189.934814 74.005226,198.927811 
	C68.623970,199.284058 63.242710,199.640305 57.023838,200.241394 
	C56.075981,219.658188 55.965744,238.830139 55.636086,258.024109 
	C55.194004,258.198792 54.971336,258.351410 54.748665,258.503998 
	C55.117107,258.668671 55.485550,258.833313 55.934380,259.320465 
	C56.286938,260.409393 56.559113,261.175842 56.831287,261.942291 
	C62.262577,261.976746 67.693871,262.011200 73.560219,262.518250 
	C73.997520,271.649780 73.999756,280.308716 74.001991,288.967651 
	C72.920746,289.466156 71.849648,290.372040 70.756653,290.399292 
	C61.382782,290.632996 52.004940,290.707733 42.087891,290.531067 
	C36.722923,290.165710 31.894966,289.960388 27.074886,290.078033 
	C23.389944,290.167908 19.714968,290.666260 16.035557,290.982971 
z"/>
<path fill="#000000" opacity="1.000000" stroke="none" 
	d="
M16.241470,261.121674 
	C11.468581,261.421783 6.695692,261.721924 1.461401,262.011047 
	C1.000000,241.312439 1.000000,220.624878 1.000000,199.468658 
	C6.231970,199.579330 11.463940,200.158676 16.934532,201.519470 
	C17.148125,220.198044 17.146070,238.095276 17.061028,255.992096 
	C17.052895,257.703217 16.527002,259.411865 16.241470,261.121674 
z"/>
<path fill="#221E1F" opacity="1.000000" stroke="none" 
	d="
M235.444153,472.000000 
	C235.761902,464.173981 236.471176,456.342224 237.317398,448.525330 
	C237.575897,446.137451 237.455780,442.703308 238.876221,441.716827 
	C240.433182,440.635437 243.570999,441.825775 246.019287,442.033600 
	C248.305618,442.227692 250.928833,441.795013 252.795120,442.785309 
	C255.374023,444.153656 258.634705,446.247589 259.311768,448.670990 
	C260.123199,451.575256 259.657806,456.816742 257.747223,458.122467 
	C252.429306,461.757019 255.658203,465.097107 256.703491,468.668976 
	C256.968445,469.574310 257.538483,470.390381 257.984192,471.623718 
	C255.299988,472.000000 252.599976,472.000000 249.466095,471.603271 
	C247.873596,467.966949 246.714951,464.727386 245.556305,461.487823 
	C244.870438,461.568787 244.184555,461.649750 243.498688,461.730682 
	C243.332458,465.153809 243.166245,468.576904 243.000000,472.000000 
	C240.629440,472.000000 238.258896,472.000000 235.444153,472.000000 
M245.221588,450.197266 
	C244.691360,452.826416 245.175659,455.050171 248.352707,454.857025 
	C249.583130,454.782227 250.727448,453.290771 251.910980,452.444702 
	C250.258820,451.354523 248.632019,450.221375 246.929550,449.216400 
	C246.645370,449.048584 246.032379,449.437744 245.221588,450.197266 
z"/>
<path fill="#201E1F" opacity="1.000000" stroke="none" 
	d="
M250.531464,1.000000 
	C251.843018,7.318773 246.968613,7.035546 243.049438,8.027246 
	C241.574631,8.400429 240.251724,9.373962 238.859558,10.073805 
	C239.125015,10.608912 239.390472,11.144019 239.655930,11.679126 
	C241.395416,11.458479 243.360245,10.629602 244.817947,11.169626 
	C246.681259,11.859910 248.135513,13.654301 249.766068,14.972857 
	C248.378769,16.299210 247.156677,17.894552 245.557861,18.876507 
	C243.949051,19.864586 241.965561,20.242611 240.146255,20.887962 
	C242.235687,21.599955 244.298203,22.814291 246.419708,22.928047 
	C252.356476,23.246382 253.615021,24.218132 253.540649,29.352398 
	C248.298538,30.218691 243.113251,31.147722 237.902985,31.904896 
	C235.454086,32.260773 233.294571,32.097881 232.967010,28.673870 
	C232.105804,19.671022 231.028397,10.688856 230.018555,1.349226 
	C236.687637,1.000000 243.375290,1.000000 250.531464,1.000000 
z"/>
<path fill="#201E1F" opacity="1.000000" stroke="none" 
	d="
M270.468384,472.000000 
	C269.484833,466.070679 268.810577,460.149170 268.520050,454.208862 
	C268.369476,451.130798 268.663635,447.972198 269.271606,444.953644 
	C269.441589,444.109985 271.389038,443.230011 272.614410,443.066650 
	C276.383148,442.564178 280.195587,442.379608 283.993988,442.113068 
	C286.458313,441.940155 288.770203,441.987122 288.990112,445.384216 
	C289.186890,448.424011 287.969910,449.622681 284.873169,449.328217 
	C283.273621,449.176117 281.573547,449.541565 279.990417,449.950287 
	C278.964813,450.215057 278.068542,450.980682 277.114319,451.521912 
	C278.079620,452.340118 278.951111,453.668762 280.030243,453.866974 
	C282.085632,454.244476 284.259613,453.976440 286.380035,453.976440 
	C287.551392,458.563141 287.008209,461.063843 282.056946,461.083282 
	C280.475250,461.089508 277.515747,462.599792 277.556244,463.280914 
	C277.747589,466.496338 280.079498,465.610931 282.341705,465.213043 
	C288.788483,464.079224 289.955780,465.096191 289.982544,471.571899 
	C283.645599,472.000000 277.291199,472.000000 270.468384,472.000000 
z"/>
<path fill="#232021" opacity="1.000000" stroke="none" 
	d="
M279.531738,1.000000 
	C280.560211,11.768120 273.244629,6.634889 268.015228,5.713661 
	C267.926483,6.412989 267.837769,7.112317 267.749054,7.811645 
	C269.246124,8.767198 270.684448,9.834683 272.251434,10.657022 
	C276.700897,12.992074 280.682648,16.177374 280.538055,21.388205 
	C280.468750,23.886103 277.836731,27.845430 275.647247,28.423674 
	C271.463257,29.528652 266.724182,29.048801 262.292572,28.546648 
	C258.265594,28.090347 258.859863,25.045534 260.498260,22.698969 
	C261.126190,21.799662 263.203064,21.654781 264.623596,21.643009 
	C265.886444,21.632542 267.142761,22.498499 268.424561,22.569447 
	C269.417450,22.624405 270.445221,22.049105 271.457489,21.753971 
	C271.032410,20.798683 270.748383,19.737410 270.136261,18.922670 
	C269.672394,18.305275 268.813599,17.959129 268.090607,17.565739 
	C259.390961,12.832150 258.877594,11.708257 260.978394,1.412065 
	C267.021149,1.000000 273.042297,1.000000 279.531738,1.000000 
z"/>
<path fill="#1F1D1E" opacity="1.000000" stroke="none" 
	d="
M303.533142,1.000002 
	C304.952881,1.536068 306.076660,1.901915 306.819153,2.647496 
	C307.975067,3.808221 309.706207,5.271789 309.638916,6.523417 
	C309.574371,7.723617 307.534485,9.773799 306.355133,9.779148 
	C302.773682,9.795392 302.031952,11.293900 301.807281,14.574225 
	C301.481598,19.330107 300.019623,24.007982 299.691345,28.763927 
	C299.399689,32.989986 296.574585,31.860098 294.343689,31.912294 
	C291.376160,31.981726 290.752930,29.917065 291.116974,27.491838 
	C292.042358,21.326916 293.077209,15.178428 294.116608,8.723224 
	C291.944855,8.257447 290.225128,7.888610 288.527191,7.524447 
	C288.370117,5.538010 288.219574,3.634302 288.034515,1.365298 
	C293.022095,1.000000 298.044189,1.000000 303.533142,1.000002 
z"/>
<path fill="#1F1D1E" opacity="1.000000" stroke="none" 
	d="
M530.000000,290.545898 
	C527.028076,291.452026 523.803406,292.844879 521.144897,292.130585 
	C517.372009,291.116882 516.136475,287.455780 517.329468,283.688019 
	C518.525452,279.910522 522.502075,278.577454 526.408447,280.203644 
	C527.305054,280.576904 528.284973,280.750183 529.613281,281.007751 
	C530.000000,284.030609 530.000000,287.061188 530.000000,290.545898 
z"/>
<path fill="#515151" opacity="1.000000" stroke="none" 
	d="
M2.620163,171.051300 
	C3.001619,178.494095 3.103632,185.949661 3.035992,193.403671 
	C3.026005,194.504288 2.213102,195.597626 1.385840,196.847168 
	C1.000000,188.645767 1.000000,180.291534 1.000000,171.468658 
	C1.428623,171.021194 1.857246,171.042389 2.620163,171.051300 
z"/>
<path fill="#000000" opacity="1.000000" stroke="none" 
	d="
M243.428467,472.000000 
	C243.166245,468.576904 243.332458,465.153809 243.498688,461.730682 
	C244.184555,461.649750 244.870438,461.568787 245.556305,461.487823 
	C246.714951,464.727386 247.873596,467.966949 249.016113,471.603271 
	C247.285645,472.000000 245.571289,472.000000 243.428467,472.000000 
z"/>
<path fill="#231F20" opacity="1.000000" stroke="none" 
	d="
M295.377899,277.619629 
	C285.495941,269.018799 279.422913,258.362488 277.620453,245.973633 
	C275.621857,232.236816 275.011078,217.920349 280.448700,204.949875 
	C287.554810,187.999451 300.752777,176.866013 318.568451,171.235779 
	C329.051697,167.922821 339.768646,168.378067 350.214874,169.370804 
	C359.625732,170.265137 368.528748,174.025970 376.554504,179.884781 
	C388.160797,188.357376 396.795471,198.907654 399.331573,212.965225 
	C403.804962,237.760773 401.869080,263.268280 377.296295,281.806335 
	C367.513306,289.186768 355.829254,292.125122 343.679565,292.974426 
	C325.694885,294.231537 309.718811,288.988647 295.377899,277.619629 
M360.041443,217.549866 
	C359.122009,215.240677 358.507782,212.744507 357.228058,210.656082 
	C352.725250,203.307648 346.665344,198.256195 337.409607,199.027466 
	C329.048401,199.724213 322.376892,202.952209 319.829102,211.783112 
	C319.027435,214.561905 317.964020,217.275696 317.321259,220.088013 
	C314.661072,231.727905 315.621643,243.038467 321.734894,253.419281 
	C327.237213,262.762665 338.333435,264.190369 346.742401,260.751556 
	C352.830872,258.261688 357.007568,253.428040 359.305359,246.800659 
	C361.625427,240.108917 362.062134,233.341843 361.936005,226.471115 
	C361.885925,223.746460 360.847473,221.039963 360.041443,217.549866 
z"/>
<path fill="#231F20" opacity="1.000000" stroke="none" 
	d="
M441.790985,251.691284 
	C448.887512,268.569672 465.492004,268.193115 478.320251,264.936798 
	C482.480469,263.880829 486.195831,260.208221 485.290802,255.959930 
	C484.652344,252.963211 480.978577,249.270874 477.929230,248.374115 
	C467.518860,245.312622 456.758575,243.461975 446.182373,240.937546 
	C435.469269,238.380478 425.108978,234.875748 417.190399,226.687149 
	C408.292206,217.485504 407.510559,206.395752 410.646667,194.738770 
	C413.742950,183.229919 422.486053,176.725037 432.909607,173.178162 
	C447.662567,168.158112 462.768921,168.727783 477.623535,173.722672 
	C478.867218,174.140869 480.219177,174.237091 481.164185,173.621414 
	C482.839325,172.748108 484.482513,171.202957 486.195282,171.121582 
	C492.512421,170.821503 498.854492,171.098999 505.183350,170.970184 
	C508.539856,170.901855 510.036499,172.119827 509.988342,175.624771 
	C509.862427,184.787018 509.861298,193.953613 510.004883,203.115433 
	C510.054474,206.279510 508.681335,207.111359 505.800323,207.059509 
	C499.137817,206.939606 492.466705,207.165192 485.810425,206.929855 
	C484.251953,206.874756 481.983368,205.950439 481.329468,204.733826 
	C477.640320,197.869781 470.954346,196.055908 464.365265,195.313797 
	C457.769592,194.570984 450.535767,193.292053 444.656311,197.956665 
	C443.097443,199.193390 442.333557,202.027054 442.186707,204.194016 
	C442.114868,205.254410 444.121857,207.158005 445.484222,207.500076 
	C454.873047,209.857529 464.412048,211.633423 473.761414,214.126526 
	C482.809021,216.539154 492.231110,218.490158 500.518738,222.599945 
	C514.673523,229.619263 519.135254,243.042389 517.821594,257.517303 
	C516.682861,270.065277 510.673553,280.414276 499.689514,286.171997 
	C492.437958,289.973206 483.745789,291.814240 475.497986,292.734375 
	C464.278229,293.985962 452.951904,293.063019 443.876221,287.334808 
	C441.518158,288.822754 439.821228,290.799744 438.089325,290.830902 
	C430.209229,290.972565 422.319244,290.566589 414.178650,289.612854 
	C413.970978,275.590302 414.017487,262.312408 414.527130,248.998718 
	C422.251190,248.951370 429.518829,248.768646 436.768005,249.054688 
	C438.474335,249.122009 440.118317,250.770294 441.790985,251.691284 
z"/>
<path fill="#221F20" opacity="1.000000" stroke="none" 
	d="
M109.964767,202.913666 
	C108.531792,201.931808 107.156563,200.220657 105.655258,200.101776 
	C100.712440,199.710388 95.723969,199.895752 90.305481,199.361237 
	C89.621979,190.320496 89.386024,181.778107 89.150055,173.235718 
	C90.370712,172.492920 91.591866,171.106094 92.811943,171.107040 
	C104.936829,171.116364 117.061142,171.408340 129.186508,171.497360 
	C132.986740,171.525269 136.791733,171.216370 140.590790,170.996765 
	C143.807816,170.810806 145.065292,172.305832 145.013824,175.465866 
	C144.908844,181.911957 144.982376,188.360947 144.982376,193.885437 
	C149.810623,188.634277 154.523911,182.578598 160.181183,177.594345 
	C167.011276,171.576767 175.602493,169.651108 184.669800,170.007919 
	C186.496536,170.079803 188.328293,170.023697 190.621643,170.521896 
	C191.121201,182.935120 191.156845,194.853058 191.192490,206.770996 
	C182.257782,207.043289 173.109131,206.571655 165.118225,211.521652 
	C156.141556,217.082275 151.038055,225.367340 149.837540,235.848297 
	C149.011215,243.062332 148.644760,250.328049 147.989639,257.563110 
	C147.673050,261.059479 149.124313,262.246857 152.589249,262.079559 
	C157.571167,261.838928 162.575729,262.113129 167.566956,262.002533 
	C170.772278,261.931519 172.061234,263.304749 172.010040,266.481140 
	C171.902771,273.137878 171.930756,279.797852 171.988922,286.455719 
	C172.012558,289.160645 171.533981,290.834137 168.121094,290.620789 
	C161.364883,290.198364 154.583542,290.178162 146.877991,290.015930 
	C131.873520,290.041901 117.803535,290.017365 103.733978,290.083069 
	C102.210968,290.090179 100.690392,290.619781 99.168678,290.906982 
	C96.415558,290.878632 93.645828,290.649872 90.913849,290.876404 
	C87.989761,291.118866 86.942162,289.891907 87.071510,287.162933 
	C87.401176,280.207672 87.879097,273.252686 87.940331,266.294464 
	C87.968933,263.044373 88.995079,261.820435 92.268669,261.976868 
	C96.589813,262.183319 100.937027,261.855713 105.256775,262.076294 
	C108.781319,262.256226 109.469688,260.219910 109.562752,257.462311 
	C109.711754,253.047302 109.970184,248.628113 109.890854,244.215942 
	C109.834709,241.093170 109.297157,237.979065 109.263512,234.119141 
	C109.689934,223.222702 109.827347,213.068192 109.964767,202.913666 
z"/>
<path fill="#221E1F" opacity="1.000000" stroke="none" 
	d="
M264.937195,285.250824 
	C262.512787,289.956268 258.902893,291.355255 254.074707,291.101532 
	C249.648956,290.868896 243.269073,289.750641 241.230713,292.074951 
	C238.838379,294.802826 240.070038,300.822906 239.969315,305.420380 
	C239.810272,312.680359 240.200684,319.976318 239.550247,327.184113 
	C239.395615,328.897797 235.936020,331.670715 234.182785,331.535828 
	C232.035522,331.370667 228.609726,328.879944 228.329941,327.007233 
	C227.552200,321.801270 228.035538,316.392639 228.174789,311.068085 
	C228.311508,305.840332 228.866501,300.613831 228.781921,295.394165 
	C228.740829,292.860229 227.595352,290.700226 224.107346,290.944031 
	C219.963440,291.233643 215.780640,291.089020 211.619049,290.974579 
	C205.764816,290.813629 202.657410,287.372437 203.005295,281.569122 
	C203.651047,270.797180 204.517853,260.034180 204.925537,249.253555 
	C205.259552,240.421280 204.726166,231.551804 205.175674,222.729294 
	C205.857895,209.339661 206.737839,195.939102 208.285980,182.630692 
	C208.631958,179.656662 211.509766,176.019882 214.235611,174.462799 
	C221.837814,170.120255 229.975586,166.715210 239.169937,169.016708 
	C239.946136,169.211014 241.150513,169.324768 241.377502,169.827469 
	C243.352524,174.201401 245.035706,178.708542 247.055557,183.060074 
	C247.868546,184.811584 248.984787,187.179443 250.509201,187.716537 
	C258.374512,190.487732 262.761322,196.076736 262.937836,204.809464 
	C263.075836,211.637039 262.871216,218.472794 263.069611,225.297623 
	C263.646637,245.143539 264.349609,264.985779 264.937195,285.250824 
M250.660995,271.391174 
	C250.779694,270.910156 251.001648,270.429291 251.002274,269.948120 
	C251.031250,247.463287 251.059464,224.978363 251.000397,202.493683 
	C250.997314,201.318314 250.232971,200.144943 249.300095,198.539551 
	C245.011276,194.726364 243.137939,195.084900 240.339478,200.717545 
	C240.240433,223.210526 240.134918,245.703506 240.079742,268.196594 
	C240.078354,268.758026 240.632935,269.320862 240.958298,270.681671 
	C240.752701,274.327545 243.095688,275.983185 246.106644,275.738373 
	C247.510101,275.624207 248.731827,273.275269 250.660995,271.391174 
M228.998947,246.117111 
	C229.005661,231.655014 228.999542,217.192886 229.028030,202.730835 
	C229.035187,199.096481 227.607269,196.273590 223.792099,196.231323 
	C220.008621,196.189407 218.979202,199.236664 218.979370,202.519470 
	C218.980591,225.292923 218.922287,248.067535 219.211594,270.837616 
	C219.235107,272.689301 221.352234,275.460266 223.125534,276.124237 
	C225.849091,277.144104 227.687805,275.056641 228.831863,271.794037 
	C228.882782,263.550079 228.933716,255.306107 228.998947,246.117111 
z"/>
<path fill="#232021" opacity="1.000000" stroke="none" 
	d="
M408.766907,405.220917 
	C414.472168,412.432220 414.435608,422.437988 408.308136,427.149414 
	C402.984283,431.242920 390.625946,432.697754 384.763763,426.007690 
	C379.484589,419.982941 379.552429,408.863098 385.361908,404.198975 
	C393.413635,397.734619 399.613312,396.806519 408.766907,405.220917 
M403.862396,418.108337 
	C405.845703,414.511536 404.876007,411.388580 401.375427,409.891632 
	C398.781342,408.782288 395.214661,407.988098 392.843536,408.944183 
	C390.987885,409.692413 389.002960,413.608154 389.420044,415.633728 
	C389.958221,418.247253 392.384644,421.192444 394.806793,422.530365 
	C398.537598,424.591187 401.255310,421.625519 403.862396,418.108337 
z"/>
<path fill="#231F20" opacity="1.000000" stroke="none" 
	d="
M214.783691,6.034508 
	C221.411270,11.337241 221.731400,12.383618 218.739059,17.902361 
	C224.888626,24.755596 226.126312,28.760798 221.230637,32.527248 
	C217.271515,35.573139 211.473648,36.285385 206.410172,37.752335 
	C205.903076,37.899250 204.371475,36.222317 204.096802,35.184921 
	C202.113525,27.694347 200.209625,20.176292 198.604553,12.598321 
	C198.333252,11.317480 199.360779,8.641627 200.237198,8.424752 
	C204.888153,7.273839 209.682373,6.701819 214.783691,6.034508 
z"/>
<path fill="#221E1F" opacity="1.000000" stroke="none" 
	d="
M86.621735,341.429321 
	C87.005600,345.675720 87.260300,349.781311 87.077255,353.867279 
	C86.949944,356.709015 86.221275,359.523804 85.761269,362.350647 
	C86.246529,362.626312 86.731796,362.901978 87.217056,363.177643 
	C88.644470,362.085236 90.197060,361.120880 91.473244,359.873749 
	C94.135101,357.272430 96.547928,356.501190 99.409019,359.723145 
	C102.459473,363.158356 99.716248,364.816620 97.470688,366.311859 
	C90.390648,371.026337 83.170784,375.530792 74.572052,381.033508 
	C75.875206,372.309357 76.950661,365.109589 78.192284,356.797333 
	C74.522751,359.043823 72.038734,361.083069 69.189804,362.110657 
	C67.530235,362.709229 65.286209,361.687408 63.305153,361.394653 
	C63.659306,359.560699 63.368706,356.837494 64.472359,356.037323 
	C71.580193,350.883820 78.993034,346.151001 86.621735,341.429321 
z"/>
<path fill="#221E1F" opacity="1.000000" stroke="none" 
	d="
M396.583771,68.625427 
	C402.418365,62.202892 408.025421,56.062103 413.632477,49.921314 
	C414.237274,50.033340 414.842072,50.145363 415.446869,50.257389 
	C416.213989,57.515305 416.981110,64.773216 417.903748,73.502647 
	C421.618988,69.365028 424.375916,66.294678 427.040405,63.327274 
	C432.925415,66.598587 433.224091,67.330856 429.573120,71.878044 
	C425.129639,77.412315 420.471924,82.778488 415.779510,88.105148 
	C415.014313,88.973778 413.591553,89.263153 412.472717,89.820267 
	C411.991211,88.701866 411.199799,87.614876 411.082672,86.459541 
	C410.615875,81.853638 410.431183,77.219398 409.979950,72.611511 
	C409.847565,71.259819 409.179169,69.960609 408.404846,67.536552 
	C405.969910,70.258446 404.073822,72.104973 402.511261,74.200233 
	C400.897278,76.364449 399.900299,79.094261 396.448944,76.330368 
	C393.191101,73.721458 393.821991,71.411560 396.583771,68.625427 
z"/>
<path fill="#232021" opacity="1.000000" stroke="none" 
	d="
M146.043518,38.966568 
	C150.532944,45.438751 154.839218,51.597088 159.070923,57.648804 
	C154.495850,63.625061 153.734833,63.608559 149.333954,57.972836 
	C148.333267,56.691372 147.145065,55.556347 145.781189,54.068050 
	C143.270187,55.598011 140.757050,57.129272 137.644913,59.025505 
	C138.761429,60.763046 139.766739,62.337227 140.782135,63.904858 
	C141.760574,65.415436 142.749466,66.919250 143.911407,68.697952 
	C142.223160,70.009445 140.666214,71.533226 138.816971,72.495049 
	C138.114151,72.860588 136.272690,72.271942 135.744461,71.542793 
	C131.502808,65.687668 127.405403,59.725819 123.354813,53.735138 
	C119.632431,48.229855 120.105637,47.037064 126.799606,44.268089 
	C128.989365,46.799473 130.851089,50.800774 133.482361,51.395096 
	C135.656601,51.886192 138.740372,48.350494 141.376358,46.628326 
	C139.415222,43.380249 137.589783,40.356903 135.755630,37.319130 
	C142.657639,33.270580 142.657639,33.270580 146.043518,38.966568 
z"/>
<path fill="#231F20" opacity="1.000000" stroke="none" 
	d="
M367.136688,21.810865 
	C366.417786,25.289465 365.446991,28.511457 364.280701,32.382244 
	C366.693207,33.746277 369.481659,35.322868 372.399506,36.972610 
	C374.642944,33.623932 376.730591,30.507818 378.786774,27.438673 
	C385.224976,30.595165 385.256287,30.610582 382.305328,36.604126 
	C379.680054,41.936237 376.937195,47.210503 374.314331,52.543770 
	C370.712952,59.866722 371.445374,58.676949 364.106506,54.338936 
	C365.015747,52.482883 365.696289,50.421017 366.916473,48.754169 
	C368.948425,45.978268 369.381775,43.886253 365.884583,41.925751 
	C362.583679,40.075283 360.221252,39.406197 357.871674,43.587132 
	C354.280762,49.976898 353.983978,49.810112 347.794647,45.563313 
	C352.241913,36.777409 356.725098,27.920557 361.343781,18.796021 
	C363.650421,19.944239 365.267609,20.749247 367.136688,21.810865 
z"/>
<path fill="#231F20" opacity="1.000000" stroke="none" 
	d="
M350.557526,457.977234 
	C344.655792,460.990936 343.681793,456.211823 342.243866,453.016083 
	C339.709534,447.383636 337.762573,441.488739 335.290527,435.825623 
	C333.979645,432.822510 334.020416,430.786804 337.467621,429.618317 
	C341.172729,428.362427 344.748199,426.487427 348.546692,425.792877 
	C356.462036,424.345581 361.934448,430.926178 359.583984,438.634552 
	C359.251923,439.723511 358.671936,440.736847 358.443085,441.252594 
	C360.232849,443.281525 361.668518,445.085419 363.293549,446.698547 
	C364.739166,448.133636 367.507812,449.216278 365.055756,451.661987 
	C363.069366,453.643311 360.596436,454.222321 358.003510,452.076111 
	C355.435364,449.950531 352.647827,448.090088 349.037842,446.700806 
	C349.940033,449.550659 350.946747,452.374298 351.673706,455.268158 
	C351.864410,456.027252 351.187561,457.004333 350.557526,457.977234 
M350.888458,433.686584 
	C345.374023,433.546234 344.186493,435.121643 346.672943,439.964630 
	C348.247284,437.903656 353.210327,439.200226 350.888458,433.686584 
z"/>
<path fill="#221E1F" opacity="1.000000" stroke="none" 
	d="
M428.754669,86.704971 
	C436.458923,78.436478 451.747528,82.493774 454.442017,94.294250 
	C454.897339,96.288475 454.380951,99.890923 453.116333,100.592575 
	C450.746094,101.907692 448.491760,100.922028 447.454956,97.337234 
	C446.460419,93.898567 443.974609,90.632698 439.511230,91.106270 
	C435.764587,91.503792 432.614075,93.325523 432.412384,97.476685 
	C432.300293,99.783829 433.427185,102.151192 434.202148,105.341461 
	C436.327057,102.059708 437.640930,100.030571 439.055634,97.845695 
	C441.676147,100.148430 443.783051,101.848854 445.681885,103.756378 
	C446.286407,104.363670 446.681274,105.560577 446.583435,106.420731 
	C446.137939,110.336861 435.935577,115.293114 432.545776,113.338432 
	C422.344513,107.456017 420.576080,95.941895 428.754669,86.704971 
z"/>
<path fill="#201E1F" opacity="1.000000" stroke="none" 
	d="
M280.989380,331.843872 
	C285.478607,332.053009 286.218842,335.946655 285.607452,337.927826 
	C284.698456,340.873383 282.316559,344.394989 279.658356,345.501251 
	C276.552917,346.793610 272.306458,346.407074 268.876404,345.514252 
	C266.214752,344.821442 263.956787,342.510193 264.801514,338.653809 
	C265.243561,336.636108 264.362091,334.349915 264.221405,332.175690 
	C264.126129,330.703094 264.117767,329.187561 264.357208,327.738617 
	C264.806519,325.019592 265.971252,322.326355 265.925995,319.637726 
	C265.837555,314.385590 268.754913,311.913818 273.240082,311.262360 
	C276.943634,310.724457 280.787476,311.152466 284.389832,311.152466 
	C284.031891,314.771240 283.805878,317.905975 283.395111,321.016327 
	C282.720947,326.120850 279.538147,328.838501 274.298492,328.981995 
	C272.840118,329.021881 271.383820,329.136536 269.819763,330.369659 
	C273.406067,330.832733 276.992401,331.295837 280.989380,331.843872 
M272.602692,317.458435 
	C272.506439,319.389618 272.410217,321.320770 272.313995,323.251953 
	C272.991791,323.541321 273.669586,323.830688 274.347382,324.120026 
	C275.448486,322.618652 277.418884,321.116638 277.417816,319.616089 
	C277.416626,317.958313 276.343231,315.040192 272.602692,317.458435 
M278.473602,337.734161 
	C276.551270,337.525635 274.628876,337.190948 272.706696,337.192291 
	C272.189545,337.192627 271.328918,338.172150 271.253967,338.779633 
	C271.180237,339.377655 271.911896,340.640533 272.275604,340.635101 
	C274.629822,340.600006 277.741486,342.496826 278.473602,337.734161 
z"/>
<path fill="#201E1F" opacity="1.000000" stroke="none" 
	d="
M180.200073,40.191925 
	C182.029282,41.405365 183.477097,42.693142 184.924896,43.980919 
	C183.790955,45.235825 182.868729,46.844814 181.480682,47.674747 
	C178.207123,49.632061 174.799545,51.434174 171.271576,52.870071 
	C169.288956,53.677006 166.954910,54.610134 165.536423,51.272964 
	C162.100632,43.189869 158.325302,35.251095 154.369583,26.556915 
	C157.282059,25.075130 160.240540,23.532217 163.235947,22.064659 
	C164.421585,21.483768 165.735641,21.161816 166.911911,20.565502 
	C173.281982,17.336170 173.273422,17.319286 174.632355,25.123299 
	C172.652481,25.965889 170.385971,26.596924 168.522217,27.834518 
	C167.155930,28.741783 166.318161,30.444975 165.244827,31.793427 
	C166.759064,31.706749 168.303665,31.773623 169.777466,31.482382 
	C170.859009,31.268663 172.077850,29.960575 172.831253,30.238008 
	C174.543350,30.868473 176.643173,31.869020 177.340393,33.318150 
	C177.784424,34.241009 176.288269,36.525299 175.139938,37.679771 
	C173.651291,39.176403 169.430389,37.949039 170.662613,41.839436 
	C170.818069,42.330242 175.154251,41.564537 177.535126,41.244621 
	C178.325836,41.138378 179.059128,40.604588 180.200073,40.191925 
z"/>
<path fill="#201E1F" opacity="1.000000" stroke="none" 
	d="
M161.493729,449.000671 
	C159.171982,448.382538 157.265686,448.251190 158.787994,445.076019 
	C161.829819,438.731445 164.648010,432.262634 167.194550,425.703766 
	C168.860825,421.412140 170.998093,419.838135 175.443665,422.157349 
	C179.378815,424.210327 183.551392,425.808167 188.109009,427.823578 
	C187.320267,430.109863 186.546219,432.353577 185.600525,435.094849 
	C182.282654,433.492096 179.536758,431.980133 176.635666,430.876068 
	C175.754333,430.540680 174.444550,431.331238 173.331009,431.606049 
	C173.808975,432.518127 174.055847,433.785187 174.808594,434.275208 
	C176.996475,435.699493 179.387024,436.812469 181.937073,438.175262 
	C180.968597,440.312988 180.179077,442.055725 179.452087,443.660431 
	C175.550003,444.728241 171.992615,438.287903 167.972672,443.112030 
	C171.531723,445.771881 174.879623,447.934723 177.671082,450.666229 
	C178.186508,451.170532 176.452194,453.973969 175.602966,456.099945 
	C170.603043,453.609192 166.181000,451.406342 161.493729,449.000671 
z"/>
<path fill="#231F20" opacity="1.000000" stroke="none" 
	d="
M203.008926,455.023956 
	C207.808929,448.739532 212.440292,442.779541 217.071640,436.819550 
	C217.705032,436.926178 218.338409,437.032837 218.971786,437.139496 
	C222.969757,447.545319 223.399139,458.751099 225.779968,469.651855 
	C221.895706,470.228027 219.249557,470.292114 217.878601,466.384338 
	C216.862198,463.487152 208.969269,461.167999 206.654190,462.981110 
	C203.975143,465.079346 200.946503,466.367096 198.719818,463.698883 
	C196.187683,460.664581 199.654465,458.812744 201.603531,456.910248 
	C202.074890,456.450195 202.431107,455.872192 203.008926,455.023956 
z"/>
<path fill="#201E1F" opacity="1.000000" stroke="none" 
	d="
M409.710602,383.821045 
	C413.507446,381.449158 417.041992,379.342743 420.446075,377.314056 
	C426.304474,385.957397 417.892181,385.466492 414.772461,388.135040 
	C414.960999,388.662354 415.149536,389.189636 415.338074,389.716949 
	C417.815063,389.480103 420.363831,389.534637 422.754120,388.945770 
	C427.742218,387.717072 432.219025,387.174438 435.362762,392.586121 
	C438.351837,397.731537 435.426086,405.455627 429.203033,408.037323 
	C428.303955,408.410339 427.360046,409.002472 426.457428,408.967224 
	C424.886475,408.905792 422.503601,408.945892 421.938416,408.030945 
	C420.676117,405.987305 419.878448,403.519348 423.388062,401.968811 
	C428.845642,399.557526 428.762390,399.369080 426.950165,395.616913 
	C424.833984,396.320984 422.542419,396.765533 420.564209,397.805847 
	C416.054169,400.177734 411.967743,398.745392 409.331940,395.434235 
	C406.748749,392.189117 406.246643,387.836761 409.710602,383.821045 
z"/>
<path fill="#221F20" opacity="1.000000" stroke="none" 
	d="
M442.071106,130.653809 
	C441.313232,127.437576 440.789429,124.543198 440.277100,121.712372 
	C445.232788,117.587479 446.862427,118.228462 448.314026,124.505775 
	C448.587097,125.686615 449.698914,126.673515 450.423676,127.749908 
	C450.956024,126.552261 451.755585,125.399910 451.967773,124.147980 
	C452.487518,121.082092 452.299194,117.835480 453.201447,114.910057 
	C454.403015,111.013977 456.941650,108.319420 461.703857,108.993042 
	C466.508301,109.672630 469.068970,112.875023 470.927032,116.857002 
	C471.538330,118.167068 471.430267,119.812065 472.038391,121.124481 
	C473.682495,124.672882 470.901703,125.154877 468.787445,125.778252 
	C466.428314,126.473831 464.876007,125.557701 465.041687,122.779968 
	C465.071289,122.283730 465.218414,121.642914 464.977936,121.308762 
	C464.011078,119.965416 462.913330,118.716278 461.863953,117.432312 
	C461.289093,118.948532 460.411224,120.424263 460.202148,121.989365 
	C459.757477,125.317734 460.561310,129.110855 459.237000,131.962921 
	C456.305511,138.276352 446.936737,137.525742 442.071106,130.653809 
z"/>
<path fill="#232021" opacity="1.000000" stroke="none" 
	d="
M317.849457,467.506348 
	C316.646545,466.615814 315.343353,465.722382 315.034515,464.563873 
	C313.507324,458.835297 312.324005,453.015839 310.851440,447.271515 
	C310.130005,444.457153 309.043457,441.736359 308.049011,438.753876 
	C313.191010,437.199066 318.198120,435.360016 323.365631,434.311584 
	C325.013458,433.977234 328.054077,435.260956 328.747284,436.654755 
	C329.887054,438.946594 328.729553,441.204712 325.422760,441.087128 
	C324.951599,441.070343 324.372131,441.223938 324.009430,441.510010 
	C322.079376,443.032379 318.349945,445.502869 318.607910,446.045441 
	C320.272766,449.547028 322.728210,446.492432 324.849426,446.004486 
	C328.512512,445.161865 329.911194,447.531921 330.286865,450.201843 
	C330.455597,451.400848 328.857208,453.616516 327.569824,454.122803 
	C321.140259,456.651184 321.010284,456.528778 323.092987,463.030334 
	C324.802338,468.366608 320.200684,466.350006 317.849457,467.506348 
z"/>
<path fill="#232021" opacity="1.000000" stroke="none" 
	d="
M150.069031,431.072144 
	C148.116058,429.821838 146.406998,428.853607 144.315475,427.668671 
	C142.181824,430.364624 140.197296,432.872162 137.837769,435.853485 
	C135.812698,434.733490 133.594971,433.506958 131.190765,432.177307 
	C136.200790,424.151337 140.720566,416.540619 145.727203,409.264862 
	C146.534851,408.091156 150.041367,407.457428 151.386642,408.209167 
	C156.077209,410.830231 160.366653,414.169128 164.772263,417.210114 
	C161.145981,423.792633 161.152115,423.783356 155.295303,419.905884 
	C154.331924,419.268066 153.334518,418.424774 152.267944,418.272980 
	C151.231613,418.125458 150.086136,418.744904 148.988586,419.027557 
	C149.263046,419.983002 149.272522,421.180664 149.873215,421.837952 
	C150.806915,422.859589 152.317947,423.351532 153.259537,424.368622 
	C154.222015,425.408295 155.680313,427.576874 155.382538,427.921478 
	C154.068314,429.442444 154.115051,433.515594 150.069031,431.072144 
z"/>
<path fill="#1F1D1E" opacity="1.000000" stroke="none" 
	d="
M480.997070,343.681946 
	C481.348297,333.794128 481.699921,324.372650 482.042358,314.950867 
	C482.133240,312.450928 482.636566,310.853516 485.906921,311.543335 
	C487.899536,311.963684 490.150513,310.956177 492.255676,311.083038 
	C499.311157,311.508148 502.795105,318.186646 500.373199,324.789307 
	C498.570129,329.704926 496.024139,332.247986 490.696838,332.192688 
	C489.803101,332.183411 488.237671,334.148285 488.107544,335.325348 
	C487.747711,338.580231 487.982941,341.900879 487.982941,346.714508 
	C485.161987,345.678650 483.078033,344.913391 480.997070,343.681946 
M495.445374,320.080719 
	C493.776917,318.573578 493.668121,314.341980 489.801117,316.653137 
	C485.807190,319.040131 487.020966,322.692780 487.439148,326.250641 
	C491.485199,325.927185 495.843140,326.626587 495.445374,320.080719 
z"/>
<path fill="#1F1D1E" opacity="1.000000" stroke="none" 
	d="
M359.154083,316.176392 
	C356.303101,317.372101 354.861359,318.788452 355.846954,321.989044 
	C356.455597,323.965576 356.375488,326.406982 355.796143,328.405304 
	C355.426544,329.680054 353.578705,330.526215 352.393677,331.564575 
	C351.689056,330.311035 350.430054,329.080780 350.376221,327.799866 
	C350.148651,322.386719 350.279816,316.958496 350.279816,311.059875 
	C358.056000,311.059875 365.674225,311.166656 373.287598,311.020477 
	C377.967407,310.930603 381.731262,313.947632 381.972687,318.672119 
	C382.142395,321.993866 382.193634,325.355560 381.844971,328.651520 
	C381.722900,329.805328 380.249329,330.816193 379.392914,331.892334 
	C378.608551,330.881897 377.303833,329.946167 377.145874,328.845825 
	C376.794098,326.395905 377.515442,323.719147 376.847778,321.409973 
	C376.299408,319.513397 374.558075,316.827179 373.026642,316.595123 
	C370.192047,316.165588 368.780548,318.510864 368.977112,321.536499 
	C369.106384,323.527008 369.365326,325.626373 368.888153,327.504761 
	C368.443878,329.253632 367.102325,330.774536 366.155792,332.395813 
	C365.432404,332.158142 364.708984,331.920471 363.985596,331.682831 
	C363.985596,329.156311 363.961823,326.629547 363.991333,324.103363 
	C364.032562,320.574493 363.415100,317.437408 359.154083,316.176392 
z"/>
<path fill="#1F1D1E" opacity="1.000000" stroke="none" 
	d="
M436.761902,311.963074 
	C438.703979,311.659668 440.636871,311.262115 442.589966,311.071747 
	C447.103302,310.631836 451.818512,310.966949 453.315643,315.938904 
	C454.405701,319.559082 454.921722,324.179871 453.574341,327.492523 
	C451.961121,331.458649 447.739502,333.703552 441.969177,332.014832 
	C441.969177,335.197632 441.903076,337.930939 441.985413,340.659790 
	C442.096008,344.324463 440.703949,346.382446 436.349976,345.476013 
	C435.960297,337.208405 435.881012,329.401855 435.992065,321.598022 
	C436.037842,318.383362 436.492981,315.174561 436.761902,311.963074 
M449.958435,321.412842 
	C449.170380,317.862366 446.848175,315.648651 443.508728,317.172882 
	C442.274017,317.736420 442.242706,321.483704 442.173401,323.794281 
	C442.144073,324.771606 443.655701,326.723572 444.081909,326.621704 
	C445.723633,326.229309 447.289490,325.302551 448.715546,324.328888 
	C449.305481,323.926086 449.471588,322.902618 449.958435,321.412842 
z"/>
<path fill="#221E1F" opacity="1.000000" stroke="none" 
	d="
M337.398376,37.328838 
	C336.223572,40.961002 333.773621,41.502075 330.921204,40.774185 
	C328.454803,40.144806 327.423553,38.819237 328.600891,35.979176 
	C330.802948,30.667402 332.692291,25.217155 334.456818,19.742357 
	C334.721497,18.921213 333.813660,16.912815 333.096344,16.712252 
	C327.218262,15.068798 328.724396,12.127510 332.013000,8.185933 
	C338.272430,10.333426 344.822876,12.580756 351.347534,14.819235 
	C351.362122,18.903633 350.322205,21.372980 345.667480,21.138788 
	C344.336304,21.071814 342.204773,22.796917 341.643951,24.186192 
	C339.973969,28.323080 338.902222,32.701466 337.398376,37.328838 
z"/>
<path fill="#201E1F" opacity="1.000000" stroke="none" 
	d="
M120.737976,74.245499 
	C123.229279,77.050613 125.461548,79.603569 127.656677,82.114044 
	C122.759689,87.284218 121.327820,87.280518 117.137932,82.457687 
	C114.444008,79.356827 111.919945,76.072388 108.936867,73.279129 
	C107.951775,72.356728 105.774696,72.583427 104.133385,72.518433 
	C102.261818,72.444328 100.379906,72.631264 98.502495,72.704750 
	C98.897530,70.406342 98.575119,67.542465 99.843880,65.932686 
	C102.154961,63.000439 105.231346,60.550339 108.346870,58.424358 
	C109.898819,57.365334 112.892723,56.477928 114.089088,57.261501 
	C116.278755,58.695637 116.702034,61.400215 114.141663,63.552917 
	C113.782715,63.854717 113.597183,64.362770 112.955788,65.358353 
	C115.397423,68.160828 117.938179,71.077087 120.737976,74.245499 
z"/>
<path fill="#221E1F" opacity="1.000000" stroke="none" 
	d="
M102.859024,409.164429 
	C101.430283,407.745209 100.273651,406.566742 99.133629,405.372375 
	C97.995926,404.180481 96.874832,402.972717 94.934280,400.907593 
	C101.528435,393.833069 108.190468,386.685760 115.641533,378.691925 
	C117.423401,380.751038 119.771416,382.403717 120.344215,384.533752 
	C120.675064,385.764099 118.282906,387.898224 116.869720,389.392365 
	C113.286057,393.181152 109.563362,396.838501 104.925194,401.531006 
	C108.272438,403.746460 111.062263,405.592987 113.631104,407.293243 
	C109.179771,413.607849 109.179771,413.607849 102.859024,409.164429 
z"/>
<path fill="#201E1F" opacity="1.000000" stroke="none" 
	d="
M402.941467,313.987854 
	C403.708862,315.513031 404.329559,316.689484 404.890076,317.893982 
	C406.508148,321.371216 405.198578,322.934814 401.550171,322.935638 
	C398.607330,322.936310 395.664520,322.935791 392.063751,322.935791 
	C393.564362,327.120789 395.803070,327.823303 398.731781,326.076477 
	C400.960327,324.747314 402.810089,324.918762 403.321838,327.355957 
	C403.534332,328.368011 401.887543,330.427765 400.633850,330.975372 
	C395.511230,333.212952 390.052643,332.323700 388.122162,329.232208 
	C385.267822,324.661285 384.610016,317.308105 389.120697,313.405762 
	C392.734558,310.279358 396.807556,310.137421 402.941467,313.987854 
z"/>
<path fill="#201E1F" opacity="1.000000" stroke="none" 
	d="
M305.067139,327.908691 
	C298.362091,333.773529 291.779297,333.240753 287.732147,326.871826 
	C285.134216,322.783508 285.613342,318.239807 289.257904,314.357208 
	C292.175385,311.249207 295.664795,309.581268 299.917480,311.519287 
	C305.244202,313.946777 307.869873,318.454742 306.867126,323.415741 
	C306.577759,324.847382 305.791962,326.178680 305.067139,327.908691 
M300.464508,319.123016 
	C298.704498,317.252930 296.548828,315.093048 294.331543,317.705475 
	C293.016022,319.255371 292.581299,322.123047 292.908295,324.217468 
	C293.039917,325.060608 296.435303,326.186035 298.051819,325.834320 
	C301.058136,325.180237 301.945190,322.723602 300.464508,319.123016 
z"/>
<path fill="#201E1F" opacity="1.000000" stroke="none" 
	d="
M458.050446,320.344116 
	C458.721069,314.872070 461.456421,311.957733 466.588226,311.063324 
	C471.234741,310.253479 474.426300,312.461273 476.564789,315.967773 
	C478.992706,319.949036 478.643250,324.287933 475.838104,328.101685 
	C473.121826,331.794617 469.184021,332.540802 465.006256,331.468384 
	C459.372681,330.022217 458.074188,327.820038 458.050446,320.344116 
M464.515442,318.593719 
	C464.379517,320.928253 464.243591,323.262787 464.107666,325.597321 
	C464.649384,326.016113 465.191101,326.434937 465.732819,326.853729 
	C467.796722,325.581055 470.474426,324.716003 471.692535,322.881653 
	C472.414001,321.795227 471.305756,318.740601 470.093384,317.425476 
	C469.439392,316.716064 466.833984,317.805573 464.515442,318.593719 
z"/>
<path fill="#221E1F" opacity="1.000000" stroke="none" 
	d="
M392.322205,58.240093 
	C389.807068,61.533752 387.563904,64.582550 385.351166,67.589973 
	C377.842407,63.856499 377.969147,63.357227 383.273041,57.035660 
	C386.929016,52.678135 389.705231,47.592583 393.019592,42.935566 
	C396.649841,37.834728 396.722473,37.886421 402.209290,43.109215 
	C399.083405,47.948708 395.838776,52.971970 392.322205,58.240093 
z"/>
<path fill="#201E1F" opacity="1.000000" stroke="none" 
	d="
M315.450531,331.301331 
	C313.446533,329.782776 310.487946,328.468140 310.389893,326.966614 
	C310.080139,322.223938 310.772583,317.403900 311.283569,312.635864 
	C311.341797,312.092804 312.875641,311.162872 313.428497,311.339783 
	C314.361725,311.638397 315.559113,312.571350 315.743958,313.431335 
	C316.081482,315.001617 315.699860,316.714569 315.730560,318.365936 
	C315.763336,320.127106 315.451385,322.119965 316.170166,323.577606 
	C316.844666,324.945312 318.584106,326.357666 320.020721,326.557281 
	C320.829102,326.669617 322.481934,324.507172 322.856903,323.125885 
	C323.585876,320.440552 323.474243,317.531952 324.145020,314.823364 
	C324.408203,313.760620 325.837006,312.986542 326.734955,312.080963 
	C327.491943,312.966187 328.871368,313.828979 328.904205,314.740295 
	C329.106873,320.360779 329.005981,325.992188 329.005981,331.419769 
	C324.306641,331.419769 320.055847,331.419769 315.450531,331.301331 
z"/>
<path fill="#231F20" opacity="1.000000" stroke="none" 
	d="
M380.134857,434.825745 
	C384.358063,441.051727 383.719147,442.930573 376.580322,444.790161 
	C374.098511,440.713745 371.357880,436.635437 369.061615,432.320587 
	C366.802399,428.075256 364.993988,423.589966 363.031830,419.306213 
	C368.182312,414.687469 368.602661,414.753479 371.769592,420.234619 
	C374.515045,424.986206 377.292114,429.719543 380.134857,434.825745 
z"/>
<path fill="#201E1F" opacity="1.000000" stroke="none" 
	d="
M130.453445,412.546783 
	C127.320709,416.539703 124.411293,420.255981 121.238373,424.308807 
	C118.952904,422.816071 117.091309,421.600159 114.897163,420.167023 
	C121.280045,411.962036 127.411667,404.080017 133.861343,395.789185 
	C135.861832,397.319122 137.881668,398.863861 140.487259,400.856598 
	C137.011688,404.900085 133.844238,408.585114 130.453445,412.546783 
z"/>
<path fill="#201E1F" opacity="1.000000" stroke="none" 
	d="
M54.508217,338.469635 
	C61.442589,334.847504 68.095177,331.483917 74.655960,327.949951 
	C78.286697,325.994293 81.265938,324.783600 81.229980,330.886597 
	C81.225960,331.568756 81.940964,332.255127 82.685936,333.591431 
	C74.127304,337.528412 65.839485,341.392914 57.481544,345.099335 
	C56.703094,345.444550 54.676315,344.950287 54.599655,344.569733 
	C54.212772,342.649139 54.280117,340.637024 54.508217,338.469635 
z"/>
<path fill="#1F1D1E" opacity="1.000000" stroke="none" 
	d="
M410.205750,329.258728 
	C409.292999,324.337189 411.925232,319.194397 407.456238,315.306519 
	C406.989319,314.900299 407.116943,313.296997 407.505737,312.516663 
	C408.699524,310.120880 410.154480,307.855225 411.666656,305.267212 
	C412.404144,305.521149 413.759216,305.564362 414.111908,306.180969 
	C415.824951,309.175659 418.403717,311.146454 420.983215,313.315033 
	C423.057312,315.058746 421.419037,316.744415 419.204010,316.832825 
	C416.037476,316.959259 415.860962,318.866516 415.977203,321.208038 
	C416.088257,323.444672 415.399963,325.982056 419.107880,326.221497 
	C420.085388,326.284607 420.954498,328.025970 421.873383,328.996643 
	C420.968597,329.820160 419.999146,331.401550 419.170654,331.330841 
	C416.208954,331.078094 413.295044,330.264984 410.205750,329.258728 
z"/>
<path fill="#201E1F" opacity="1.000000" stroke="none" 
	d="
M506.312073,326.236481 
	C508.236115,326.334320 509.795929,326.529022 511.355774,326.723755 
	C511.503632,326.419495 511.651489,326.115265 511.799347,325.811005 
	C510.467712,324.848114 509.136292,323.884857 507.804321,322.922363 
	C504.289307,320.382263 503.140320,315.763885 505.249573,312.652161 
	C507.048492,309.998260 512.295044,309.679413 515.594116,312.235321 
	C516.290100,312.774567 516.716797,314.180023 516.584106,315.086273 
	C516.496887,315.682068 515.220276,316.427948 514.411011,316.517578 
	C513.205505,316.651123 511.942291,316.264740 509.337036,315.917389 
	C512.857971,321.024231 523.432373,321.859650 517.174561,329.710266 
	C514.022888,333.664124 508.710571,333.617188 503.801270,329.742065 
	C504.467743,328.683777 505.207825,327.508575 506.312073,326.236481 
z"/>
<path fill="#231F20" opacity="1.000000" stroke="none" 
	d="
M347.657166,314.445251 
	C347.046997,315.400391 346.473969,316.577667 346.079285,316.520599 
	C340.317200,315.688049 339.733582,319.202271 339.995270,323.524109 
	C340.045441,324.353119 339.930054,325.195221 340.015411,326.018402 
	C340.319092,328.947815 339.911682,331.742737 336.249695,331.449066 
	C332.696198,331.164093 334.533722,328.428284 334.591278,326.436829 
	C334.736969,321.395142 334.639587,316.346405 334.639587,311.957489 
	C337.350159,311.667999 339.827362,311.232483 342.311401,311.188751 
	C344.553772,311.149292 347.684235,309.909515 347.657166,314.445251 
z"/>
<path fill="#E5E4E4" opacity="1.000000" stroke="none" 
	d="
M56.884571,261.479950 
	C56.559113,261.175842 56.286938,260.409393 55.995010,259.071594 
	C55.935341,258.334198 55.895424,258.168152 55.855503,258.002075 
	C55.965744,238.830139 56.075981,219.658188 56.551567,200.261261 
	C56.923897,220.363388 56.930878,240.690491 56.884571,261.479950 
z"/>
<path fill="#AAAAAA" opacity="1.000000" stroke="none" 
	d="
M99.624947,290.947144 
	C100.690392,290.619781 102.210968,290.090179 103.733978,290.083069 
	C117.803535,290.017365 131.873520,290.041901 146.403015,290.036499 
	C145.383163,290.355164 143.904984,290.950470 142.423996,290.957489 
	C128.309998,291.024323 114.195541,290.991516 99.624947,290.947144 
z"/>
<path fill="#AAAAAA" opacity="1.000000" stroke="none" 
	d="
M414.063965,249.034531 
	C414.017487,262.312408 413.970978,275.590302 413.932739,289.322021 
	C413.644165,288.936035 413.089905,288.096527 413.088898,287.256348 
	C413.073822,274.385620 413.130890,261.514801 413.537415,248.631500 
	C413.903687,248.619019 414.063965,249.034531 414.063965,249.034531 
z"/>
<path fill="#515151" opacity="1.000000" stroke="none" 
	d="
M191.464996,206.486725 
	C191.156845,194.853058 191.121201,182.935120 191.093231,170.558136 
	C191.373627,173.003281 191.863342,175.906342 191.878845,178.811920 
	C191.927582,187.941589 191.798004,197.072220 191.464996,206.486725 
z"/>
<path fill="#AAAAAA" opacity="1.000000" stroke="none" 
	d="
M436.611420,311.611298 
	C436.492981,315.174561 436.037842,318.383362 435.992065,321.598022 
	C435.881012,329.401855 435.960297,337.208405 435.931580,345.477753 
	C435.603546,344.945923 435.055817,343.951904 435.049103,342.954224 
	C434.985748,333.508575 434.966309,324.061707 435.080261,314.616943 
	C435.093872,313.492401 435.979492,312.378418 436.611420,311.611298 
z"/>
<path fill="#515151" opacity="1.000000" stroke="none" 
	d="
M414.527130,248.998718 
	C414.063965,249.034531 413.903687,248.619019 413.878723,248.397736 
	C422.114960,248.142319 430.376617,248.143265 438.637177,248.049377 
	C440.702698,248.025909 442.335266,248.187103 441.824249,251.294296 
	C440.118317,250.770294 438.474335,249.122009 436.768005,249.054688 
	C429.518829,248.768646 422.251190,248.951370 414.527130,248.998718 
z"/>
<path fill="#232021" opacity="1.000000" stroke="none" 
	d="
M109.672478,203.223572 
	C109.827347,213.068192 109.689934,223.222702 109.276413,233.688599 
	C109.126938,223.844498 109.253563,213.688980 109.672478,203.223572 
z"/>
<path fill="#515151" opacity="1.000000" stroke="none" 
	d="
M74.326202,198.662445 
	C73.994980,189.934814 73.984734,180.941818 73.995651,171.481750 
	C74.350235,173.354660 74.957405,175.693726 74.965302,178.034805 
	C74.988205,184.821793 74.770477,191.609589 74.326202,198.662445 
z"/>
<path fill="#515151" opacity="1.000000" stroke="none" 
	d="
M74.337723,288.712189 
	C73.999756,280.308716 73.997520,271.649780 74.032440,262.528839 
	C74.387787,265.077515 74.943367,268.085846 74.973358,271.099396 
	C75.030922,276.883606 74.790352,282.670776 74.337723,288.712189 
z"/>
<path fill="#515151" opacity="1.000000" stroke="none" 
	d="
M89.140465,173.683456 
	C89.386024,181.778107 89.621979,190.320496 89.827164,199.309113 
	C89.574562,191.213943 89.352715,182.672577 89.140465,173.683456 
z"/>
<path fill="#AAAAAA" opacity="1.000000" stroke="none" 
	d="
M16.501827,290.990234 
	C19.714968,290.666260 23.389944,290.167908 27.074886,290.078033 
	C31.894966,289.960388 36.722923,290.165710 41.755699,290.607635 
	C33.631969,290.987915 25.300035,290.992737 16.501827,290.990234 
z"/>
<path fill="#AAAAAA" opacity="1.000000" stroke="none" 
	d="
M16.460991,261.388611 
	C16.527002,259.411865 17.052895,257.703217 17.061028,255.992096 
	C17.146070,238.095276 17.148125,220.198044 17.216150,201.862244 
	C17.461304,203.038574 17.835377,204.653198 17.839165,206.268692 
	C17.879158,223.333084 17.887590,240.397751 17.806463,257.461853 
	C17.799810,258.861511 17.072805,260.257721 16.460991,261.388611 
z"/>
<path fill="#1F1D1E" opacity="1.000000" stroke="none" 
	d="
M55.636086,258.024109 
	C55.895424,258.168152 55.935341,258.334198 55.914627,258.749084 
	C55.485550,258.833313 55.117107,258.668671 54.748665,258.503998 
	C54.971336,258.351410 55.194004,258.198792 55.636086,258.024109 
z"/>
<path fill="#000000" opacity="1.000000" stroke="none" 
	d="
M245.396454,449.883392 
	C246.032379,449.437744 246.645370,449.048584 246.929550,449.216400 
	C248.632019,450.221375 250.258820,451.354523 251.910980,452.444702 
	C250.727448,453.290771 249.583130,454.782227 248.352707,454.857025 
	C245.175659,455.050171 244.691360,452.826416 245.396454,449.883392 
z"/>
<path fill="#000000" opacity="1.000000" stroke="none" 
	d="
M360.150269,217.937531 
	C360.847473,221.039963 361.885925,223.746460 361.936005,226.471115 
	C362.062134,233.341843 361.625427,240.108917 359.305359,246.800659 
	C357.007568,253.428040 352.830872,258.261688 346.742401,260.751556 
	C338.333435,264.190369 327.237213,262.762665 321.734894,253.419281 
	C315.621643,243.038467 314.661072,231.727905 317.321259,220.088013 
	C317.964020,217.275696 319.027435,214.561905 319.829102,211.783112 
	C322.376892,202.952209 329.048401,199.724213 337.409607,199.027466 
	C346.665344,198.256195 352.725250,203.307648 357.228058,210.656082 
	C358.507782,212.744507 359.122009,215.240677 360.150269,217.937531 
z"/>
<path fill="#000000" opacity="1.000000" stroke="none" 
	d="
M227.974258,272.066040 
	C227.687805,275.056641 225.849091,277.144104 223.125534,276.124237 
	C221.352234,275.460266 219.235107,272.689301 219.211594,270.837616 
	C218.922287,248.067535 218.980591,225.292923 218.979370,202.519470 
	C218.979202,199.236664 220.008621,196.189407 223.792099,196.231323 
	C227.607269,196.273590 229.035187,199.096481 229.028030,202.730835 
	C228.999542,217.192886 229.005661,231.655014 228.570343,246.722137 
	C228.085907,255.573456 228.030090,263.819763 227.974258,272.066040 
z"/>
<path fill="#000000" opacity="1.000000" stroke="none" 
	d="
M240.907486,200.145828 
	C243.137939,195.084900 245.011276,194.726364 249.604492,199.225189 
	C249.951233,223.920319 249.993591,247.929810 250.035934,271.939301 
	C248.731827,273.275269 247.510101,275.624207 246.106644,275.738373 
	C243.095688,275.983185 240.752701,274.327545 240.980011,269.825256 
	C240.970306,246.027832 240.938889,223.086838 240.907486,200.145828 
z"/>
<path fill="#515151" opacity="1.000000" stroke="none" 
	d="
M250.348465,271.665222 
	C249.993591,247.929810 249.951233,223.920319 249.865952,199.440735 
	C250.232971,200.144943 250.997314,201.318314 251.000397,202.493683 
	C251.059464,224.978363 251.031250,247.463287 251.002274,269.948120 
	C251.001648,270.429291 250.779694,270.910156 250.348465,271.665222 
z"/>
<path fill="#515151" opacity="1.000000" stroke="none" 
	d="
M240.623474,200.431686 
	C240.938889,223.086838 240.970306,246.027832 240.964966,269.425934 
	C240.632935,269.320862 240.078354,268.758026 240.079742,268.196594 
	C240.134918,245.703506 240.240433,223.210526 240.623474,200.431686 
z"/>
<path fill="#E5E4E4" opacity="1.000000" stroke="none" 
	d="
M228.403061,271.930054 
	C228.030090,263.819763 228.085907,255.573456 228.563187,247.194641 
	C228.933716,255.306107 228.882782,263.550079 228.403061,271.930054 
z"/>
<path fill="#000000" opacity="1.000000" stroke="none" 
	d="
M403.677429,418.437836 
	C401.255310,421.625519 398.537598,424.591187 394.806793,422.530365 
	C392.384644,421.192444 389.958221,418.247253 389.420044,415.633728 
	C389.002960,413.608154 390.987885,409.692413 392.843536,408.944183 
	C395.214661,407.988098 398.781342,408.782288 401.375427,409.891632 
	C404.876007,411.388580 405.845703,414.511536 403.677429,418.437836 
z"/>
<path fill="#000000" opacity="1.000000" stroke="none" 
	d="
M351.150055,433.955017 
	C353.210327,439.200226 348.247284,437.903656 346.672943,439.964630 
	C344.186493,435.121643 345.374023,433.546234 351.150055,433.955017 
z"/>
<path fill="#000000" opacity="1.000000" stroke="none" 
	d="
M272.902191,317.242310 
	C276.343231,315.040192 277.416626,317.958313 277.417816,319.616089 
	C277.418884,321.116638 275.448486,322.618652 274.347382,324.120026 
	C273.669586,323.830688 272.991791,323.541321 272.313995,323.251953 
	C272.410217,321.320770 272.506439,319.389618 272.902191,317.242310 
z"/>
<path fill="#000000" opacity="1.000000" stroke="none" 
	d="
M278.624451,338.105530 
	C277.741486,342.496826 274.629822,340.600006 272.275604,340.635101 
	C271.911896,340.640533 271.180237,339.377655 271.253967,338.779633 
	C271.328918,338.172150 272.189545,337.192627 272.706696,337.192291 
	C274.628876,337.190948 276.551270,337.525635 278.624451,338.105530 
z"/>
<path fill="#000000" opacity="1.000000" stroke="none" 
	d="
M495.609619,320.424744 
	C495.843140,326.626587 491.485199,325.927185 487.439148,326.250641 
	C487.020966,322.692780 485.807190,319.040131 489.801117,316.653137 
	C493.668121,314.341980 493.776917,318.573578 495.609619,320.424744 
z"/>
<path fill="#000000" opacity="1.000000" stroke="none" 
	d="
M449.894470,321.787109 
	C449.471588,322.902618 449.305481,323.926086 448.715546,324.328888 
	C447.289490,325.302551 445.723633,326.229309 444.081909,326.621704 
	C443.655701,326.723572 442.144073,324.771606 442.173401,323.794281 
	C442.242706,321.483704 442.274017,317.736420 443.508728,317.172882 
	C446.848175,315.648651 449.170380,317.862366 449.894470,321.787109 
z"/>
<path fill="#000000" opacity="1.000000" stroke="none" 
	d="
M300.610291,319.438324 
	C301.945190,322.723602 301.058136,325.180237 298.051819,325.834320 
	C296.435303,326.186035 293.039917,325.060608 292.908295,324.217468 
	C292.581299,322.123047 293.016022,319.255371 294.331543,317.705475 
	C296.548828,315.093048 298.704498,317.252930 300.610291,319.438324 
z"/>
<path fill="#000000" opacity="1.000000" stroke="none" 
	d="
M464.812195,318.338623 
	C466.833984,317.805573 469.439392,316.716064 470.093384,317.425476 
	C471.305756,318.740601 472.414001,321.795227 471.692535,322.881653 
	C470.474426,324.716003 467.796722,325.581055 465.732819,326.853729 
	C465.191101,326.434937 464.649384,326.016113 464.107666,325.597321 
	C464.243591,323.262787 464.379517,320.928253 464.812195,318.338623 
z"/>
</svg>